<?xml version="1.0" encoding="utf-8"?>
<!-- Generator: Adobe Illustrator 18.0.0, SVG Export Plug-In . SVG Version: 6.00 Build 0)  -->
<!DOCTYPE svg PUBLIC "-//W3C//DTD SVG 1.1//EN" "http://www.w3.org/Graphics/SVG/1.1/DTD/svg11.dtd">
<svg version="1.1" id="Layer_1" xmlns="http://www.w3.org/2000/svg" xmlns:xlink="http://www.w3.org/1999/xlink" x="0px" y="0px"
	 viewBox="0 0 250 100.7" enable-background="new 0 0 250 100.7" xml:space="preserve">
<g>
	<path fill="#FFFFFF" d="M81.1,39.4C81.1,39.4,81.1,39.4,81.1,39.4C81.2,39.4,81.2,39.4,81.1,39.4L81.1,39.4z"/>
	<path fill="#FFFFFF" d="M227.9,39.4C227.9,39.4,227.9,39.4,227.9,39.4C227.9,39.4,227.9,39.4,227.9,39.4L227.9,39.4z"/>
	<path fill="#FFFFFF" d="M242.6,40.3C242.5,40.3,242.5,40.3,242.6,40.3C242.6,40.3,242.6,40.3,242.6,40.3z"/>
</g>
<g>
	<path fill="#FFFFFF" d="M120.1,87.6c-0.4-1.5-0.6-2.7-0.7-3.7c0-0.1,0.1-0.2,0.1-0.3c0-0.1,0-0.2,0-0.2c0-0.2,0-0.4-0.1-0.5
		c-0.1-0.4-0.3-0.8-0.6-1.1c-0.3-0.3-0.6-0.6-1-0.8c-0.3-0.2-0.6-0.4-0.9-0.5c-0.2-0.1-0.4-0.2-0.4-0.3c-0.1,0-0.2,0.1-0.4,0.3
		c-0.1,0.2-0.3,0.4-0.4,0.7c-0.1,0.3-0.2,0.6-0.3,0.9c-0.1,0.3-0.1,0.5-0.1,0.7c-0.3,0.6-0.7,1.2-1.1,2c-0.4,0.8-0.8,1.6-1.3,2.4
		c-0.5,0.8-0.9,1.7-1.4,2.5c-0.5,0.8-0.9,1.5-1.3,2.2c-0.6,0.1-1,0.4-1.3,0.8c-0.3,0.5-0.5,1-0.5,1.6c0,0.5,0.1,1,0.3,1.6
		c0.2,0.6,0.6,1.1,1,1.5c0.5,0.5,1,0.9,1.7,1.2c0.7,0.3,1.5,0.5,2.4,0.5c0.8,0,1.6-0.1,2.5-0.4c0.8-0.3,1.6-0.7,2.2-1.2
		c0.7-0.5,1.2-1.2,1.6-2c0.4-0.8,0.6-1.7,0.6-2.7C120.8,90.8,120.5,89.1,120.1,87.6z M117.5,94.6c-0.2,0.5-0.6,0.8-1,1.1
		c-0.4,0.3-0.9,0.5-1.3,0.7c-0.5,0.2-1,0.2-1.5,0.2c-0.5,0-1-0.1-1.4-0.3c-0.5-0.2-0.8-0.4-1.1-0.7c-0.3-0.3-0.6-0.6-0.7-0.9
		c-0.2-0.3-0.3-0.6-0.3-0.8c0-0.5,0.2-0.9,0.6-1.1c0.4-0.2,0.9-0.5,1.5-0.6c0.5-0.2,1-0.3,1.5-0.4c0.4-0.1,0.6-0.2,0.6-0.3
		c0-0.2,0-0.3-0.1-0.4c0,0-0.1-0.1-0.1-0.1c0,0-0.2,0.1-0.7,0.1c-0.5,0-1.2,0.1-2,0.3c0.6-0.9,1.3-1.8,2.1-2.9
		c0.8-1.1,1.5-2.1,2.2-3.2c0.1,0.5,0.3,1.1,0.5,1.8c0.2,0.7,0.5,1.4,0.7,2.1c0.2,0.7,0.5,1.4,0.6,2.1c0.2,0.7,0.3,1.2,0.3,1.7
		C117.8,93.7,117.7,94.2,117.5,94.6z"/>
	<path fill="#FFFFFF" d="M153.3,79c-0.3-0.3-0.7-0.5-1.1-0.7c-0.3-0.1-1-0.2-1.9-0.3c-0.9-0.1-2.2-0.2-3.6-0.2
		c-1.1,0-2.3,0.1-3.5,0.2c-1.3,0.1-2.7,0.3-4.2,0.5c0.2-0.4,0.4-0.7,0.5-1c0.1-0.3,0.2-0.6,0.2-0.9c0-0.4-0.1-0.8-0.4-1.2
		c-0.3-0.4-0.6-0.7-1-1c-0.4-0.3-0.8-0.5-1.1-0.7c-0.4-0.2-0.7-0.3-0.8-0.3c-0.3,0.9-0.6,1.7-0.8,2.3c-0.2,0.6-0.5,1.3-0.8,2
		c-0.3,0.7-0.6,1.3-0.8,1.9c-1.1,0.3-2,0.5-2.7,0.7c-0.4,0.1-0.8,0.2-1.1,0.2c0.1-0.1,0.2-0.2,0.2-0.4c0.1-0.2,0.2-0.5,0.2-0.8
		c0-0.5-0.2-1-0.6-1.4c-0.4-0.4-0.8-0.6-1.4-0.6c-0.6,0-1.1,0.2-1.5,0.6c-0.4,0.4-0.6,0.9-0.6,1.6c0,0.1,0,0.1,0,0.2
		c0,0.1,0,0.1,0,0.2c0,0.7,0.4,1.3,1.1,1.9c0.7,0.6,1.7,0.9,2.9,0.9c0.3,0,0.7,0,1-0.1c0.4,0,0.8-0.1,1.2-0.3
		c-0.5,1.1-0.9,2.2-1.4,3.4c-0.5,1.2-0.9,2.4-1.2,3.6c-0.4,1.2-0.7,2.4-0.9,3.5c-0.1,0.5-0.2,1-0.3,1.5c-0.4,0.5-0.8,0.9-1.2,1.2
		c-1,0.8-1.9,1.3-2.6,1.3c-0.5,0-0.7-0.1-0.9-0.4c-0.1-0.3-0.2-0.7-0.2-1.1c0-1.3,0.4-2.7,1.1-4.2c0.7-1.5,1.4-2.9,2.1-4.2
		c0.5-0.6,0.7-1.1,0.7-1.6c0-0.6-0.2-1.1-0.5-1.5c-0.3-0.4-0.7-0.7-1-1c-0.4-0.2-0.7-0.4-1-0.6c-0.3-0.1-0.4-0.2-0.4-0.3
		c-0.1,0.4-0.3,1-0.7,1.9c-0.4,0.9-0.8,1.9-1.3,3c-0.5,1.1-0.9,2.3-1.2,3.6c-0.4,1.3-0.6,2.5-0.6,3.8c0,1.2,0.3,2.2,0.8,3.1
		c0.6,0.9,1.4,1.4,2.6,1.4c1.3,0,2.3-0.4,3.2-1.1c0.3-0.3,0.7-0.6,0.9-1c0.1,0.4,0.1,0.8,0.3,1c0.2,0.5,0.5,0.9,0.8,1.1
		c0.3,0.3,0.7,0.5,1,0.6c0.4,0.1,0.7,0.2,1,0.2c1.3,0,2.3-0.4,3.2-1.1c0.8-0.7,1.5-1.5,2-2.3c0.1,0.2,0.3,0.5,0.4,0.7
		c0.5,0.7,1,1.2,1.8,1.7c0.7,0.5,1.6,0.7,2.7,0.7c1.4,0,2.7-0.3,3.8-0.9c1.1-0.6,2-1.3,2.7-2c0.8-0.9,1.5-1.9,2.2-3
		c0-0.1,0-0.2-0.1-0.2c-0.1,0-0.2-0.1-0.2-0.1c-0.1,0-0.2,0.1-0.2,0.2c-0.1,0.1-0.2,0.3-0.3,0.5c-0.2,0.2-0.4,0.5-0.8,0.8
		c-0.3,0.3-0.8,0.7-1.5,1.2c-0.5,0.4-1.3,0.8-2.2,1.3c-0.9,0.5-1.8,0.7-2.7,0.7c-1.2,0-2.2-0.5-2.9-1.4c-0.7-0.9-1.1-2-1.1-3.1
		c0-0.7,0.1-1.5,0.4-2.2c0.2,0.2,0.5,0.4,1,0.5c0.5,0.1,1,0.2,1.7,0.2c0.9,0,1.9-0.2,2.7-0.5c0.9-0.3,1.6-0.8,2.3-1.4
		c0.6-0.6,1.1-1.3,1.5-2.1c0.4-0.8,0.6-1.6,0.6-2.5c0-0.9-0.4-1.7-1.1-2.4c-0.6-0.6-1.4-1-2.5-1.1c0.2,0,0.4,0,0.6,0
		c0.9,0,1.7,0.1,2.4,0.2c1.2,0.1,2.2,0.2,2.9,0.3c0.7,0.1,1.3,0.3,1.8,0.4c0.4,0.1,0.8,0.3,1,0.4c0.2,0.1,0.4,0.2,0.5,0.2
		c0.1,0,0.2-0.1,0.2-0.2c0.1-0.2,0.1-0.3,0.1-0.6c0-0.2,0-0.4,0.1-0.6c0-0.2,0-0.3,0-0.3c0-0.6-0.1-1.1-0.4-1.5
		C153.9,79.6,153.6,79.3,153.3,79z M138.7,85.1c-0.8,1-1.4,2.2-1.9,3.5c-0.5,1.3-0.7,2.6-0.7,4c0,0.6,0.1,1.3,0.3,2.1
		c0,0,0,0.1,0,0.1c-0.5,0.7-1,1.3-1.6,1.7c-1.1,0.8-2,1.2-2.7,1.2c-0.7,0-1-0.4-1-1.2c0-0.7,0.2-1.7,0.6-2.9
		c0.4-1.2,0.8-2.4,1.4-3.8c0.6-1.4,1.2-2.7,1.9-4.1c0.7-1.4,1.3-2.6,1.9-3.8c1.1-0.1,2.1-0.2,3-0.2c0.9-0.1,1.8-0.1,2.7-0.1
		c0.5,0,1.1,0,1.6,0c-1,0-1.9,0.3-2.9,0.9C140.4,83.2,139.5,84,138.7,85.1z M144.3,87.3c-0.3,0.5-0.6,0.9-1,1.3
		c-0.4,0.4-0.9,0.8-1.5,1c-0.6,0.3-1.2,0.4-1.8,0.4c-0.4,0-0.7,0-0.8-0.1c0.5-1,1-1.9,1.5-2.7c0.6-0.7,1.1-1.3,1.7-1.6
		c0.6-0.3,1-0.5,1.5-0.5c0.6,0,0.9,0.3,0.9,0.8C144.7,86.4,144.6,86.8,144.3,87.3z"/>
	<path fill="#FFFFFF" d="M80,38.3C80,38.3,80,38.3,80,38.3C80,38.3,80.1,38.3,80,38.3L80,38.3z"/>
	<path fill="#FFFFFF" d="M84.4,44.1c0.1-0.2,0.1-0.4,0.1-0.5c0-0.1,0-0.3,0-0.4c0-0.3,0-0.6-0.1-0.8c-0.2-0.6-0.5-1.2-1-1.7
		s-1-0.9-1.5-1.2c-0.5-0.3-1-0.6-1.4-0.8c-0.4-0.2-0.6-0.3-0.6-0.4c-0.2,0-0.3,0.2-0.5,0.4c-0.2,0.3-0.4,0.7-0.6,1.1
		c-0.2,0.4-0.3,0.9-0.4,1.3c-0.1,0.5-0.1,0.8-0.1,1.1c-0.5,0.9-1.1,1.9-1.7,3.1c-0.6,1.2-1.3,2.4-2,3.8c-0.7,1.3-1.4,2.6-2.2,3.9
		c-0.6,1-1.1,2-1.6,2.8c-0.1,0-0.2,0-0.3,0c-0.1,0-0.2,0-0.2,0.1c-0.1,0.2-0.1,0.4-0.2,0.6c-0.7,0.2-1.3,0.6-1.7,1.2
		c-0.5,0.7-0.7,1.6-0.7,2.6c0,0.5,0.1,1,0.2,1.5c-0.5,0.9-1,1.6-1.5,2.2c-1.4,1.8-2.6,2.6-3.5,2.6c-0.9,0-1.3-1.1-1.3-3.2
		c0-1.2,0.2-2.3,0.5-3.6c0.4-1.2,0.8-2.4,1.3-3.6c0.5-1.2,1.1-2.3,1.7-3.4c0.6-1.1,1.2-2.2,1.7-3.1h0.1c0.3-0.5,0.5-1,0.7-1.5
		c0.2-0.5,0.3-1,0.3-1.5c0-0.6-0.2-1.1-0.7-1.7c-0.4-0.5-1-1.1-1.5-1.5c-0.6-0.5-1.1-0.9-1.6-1.2c-0.5-0.3-0.8-0.4-0.9-0.4
		c-0.1,0.1-0.1,0.3-0.1,0.5c0,0.2-0.1,0.4-0.2,0.6c-0.7-0.4-1.5-0.9-2.3-1.3c-0.8-0.4-1.9-0.6-3.3-0.6c-2.1,0-3.9,0.5-5.6,1.5
		c-1.7,1-3.2,2.3-4.4,3.9c-1.3,1.6-2.2,3.4-2.9,5.3c-0.7,2-1.1,3.8-1.1,5.6c0,0.8,0.1,1.7,0.3,2.7c0.1,0.6,0.3,1.1,0.4,1.7
		c-0.6,0.6-1.4,1.3-2.4,2c-1.4,1-3.3,2-5.5,2.8c-2.3,0.9-5.1,1.3-8.4,1.3c-1.9,0-3.8-0.1-5.8-0.4c-2-0.3-4-0.5-6.2-0.9
		c2.7-3,5.4-6.1,8.1-9.5c2.7-3.4,5.5-6.5,8.3-9.4c2.8-2.9,5.6-5.2,8.5-7.2c2.9-1.9,5.8-2.9,8.8-3c1,0.3,2.1,0.5,3.5,0.8
		c1.3,0.3,2.7,0.5,4.1,0.7c1.4,0.2,2.8,0.2,4.1,0.1c1.3-0.1,2.4-0.4,3.3-0.8c0.5-0.3,1-0.6,1.3-1.1c0.3-0.4,0.6-0.9,0.9-1.5
		c0.3-0.6,0.4-1.4,0.4-2.3c0-0.1,0-0.2,0-0.5c0-0.3,0-0.6-0.1-1c-0.1-0.4-0.1-0.7-0.2-0.9c-0.1-0.3-0.2-0.4-0.3-0.4
		c-0.3,0-1.2,0.2-2.6,0.7c-1.4,0.4-3.6,0.7-6.5,0.7c-1.5,0-3.2-0.2-5.1-0.6c-1.9-0.4-4-0.9-6.3-1.5c-2.3-0.6-5-1.3-8-2.1
		c-3-0.8-6.5-1.5-10.3-2.3c-0.8-0.1-1.6-0.2-2.4-0.3c-0.8-0.1-1.6-0.1-2.4-0.1c-2.8,0-5.6,0.4-8.2,1.2C12,27.5,9.8,28.8,8,30.6
		c-1.1,1.2-2,2.3-2.8,3.4c-0.8,1.1-1.4,2.1-1.8,3c-0.4,0.9-0.8,1.6-1,2.2c-0.2,0.6-0.3,0.9-0.3,1.1c0,0.1,0,0.2,0.1,0.3
		c0.1,0.1,0.3,0.2,0.5,0.2c0.1,0,0.2,0,0.3-0.1c0.1-0.1,0.1-0.1,0.1-0.2v0.1c1.2-2.4,2.4-4.4,3.7-5.8c1.3-1.4,3-2.8,5.1-4
		c2.1-1.2,4.6-1.8,7.7-1.8c3.5,0,6.9,0.6,10.3,1.7c3.3,1.2,6.7,2.4,10.1,3.8c-3,1.5-5.7,3.5-8.1,6c-2.5,2.5-4.9,5.2-7.2,8
		c-2.3,2.9-4.6,5.9-6.9,9c-2.3,3.1-4.8,6.1-7.4,8.8c-1.4-0.2-2.9-0.4-4.4-0.8c-1.5-0.3-2.9-0.4-4.1-0.1C0.6,65.8,0,66.6,0,67.8
		c0,0.8,0.2,1.5,0.6,2.3C1,70.8,1.4,71.4,2,72c0.5,0.6,1.2,1,1.8,1.4c0.7,0.4,1.3,0.5,1.9,0.5c0.8,0,1.5-0.1,2.2-0.4
		c0.7-0.3,1.4-0.7,2-1.1c0.6-0.4,1.2-0.9,1.8-1.4c0.5-0.5,1-1,1.5-1.4c2.3,0.3,4.6,0.5,6.8,0.7c2.2,0.1,4.4,0.2,6.5,0.2
		c3.3,0,6.2-0.5,8.7-1.4c2.5-0.9,4.6-2,6.2-3.2c1.2-0.8,2.1-1.6,2.9-2.4c0,0.1,0.1,0.1,0.1,0.2c0.5,1,1.2,1.9,2.2,2.6
		c0.9,0.7,2.1,1.1,3.6,1.1c1.1,0,2-0.1,2.7-0.4c0.7-0.3,1.4-0.6,1.9-0.9c0.5-0.4,1-0.7,1.3-1.2c0.4-0.4,0.7-0.8,0.9-1.1
		c0.4,2,1.2,3.4,2.2,4.2c1,0.8,2,1.2,2.9,1.2c1.4,0,2.7-0.6,3.8-1.9c1-1.1,1.8-2.3,2.5-3.6c0.3,0.6,0.7,1.1,1.2,1.6
		c0.7,0.7,1.6,1.3,2.6,1.8c1.1,0.5,2.3,0.7,3.8,0.7c1.3,0,2.6-0.2,3.9-0.6c1.3-0.4,2.4-1,3.5-1.9c1-0.8,1.9-1.9,2.5-3.1
		c0.6-1.3,1-2.7,1-4.3c-0.3-3-0.8-5.6-1.4-7.9C84.8,47.5,84.5,45.6,84.4,44.1z M6.6,69.7c-0.4,0.3-0.8,0.5-1.2,0.5
		c-0.2,0-0.4-0.2-0.7-0.5c-0.3-0.3-0.6-0.7-0.8-1.3c0.5,0,1.1,0,1.7,0.1c0.6,0.1,1.3,0.1,2,0.1C7.4,69,7,69.4,6.6,69.7z M58,55.1
		c-0.7,2.3-1.1,4.6-1.1,6.7c-0.8,1-1.6,1.7-2.6,2.3c-1,0.6-2,0.9-3.1,0.9c-1.1,0-1.9-0.2-2.6-0.6c-0.6-0.4-1.1-0.9-1.4-1.5
		c-0.4-0.6-0.6-1.3-0.7-2c-0.1-0.7-0.1-1.4-0.1-2.1c0-1.4,0.3-2.8,0.9-4.2c0.6-1.4,1.4-2.7,2.4-3.8c1-1.1,2-2,3.1-2.7
		c1.1-0.7,2.2-1.1,3.3-1.1c0.8,0,1.5,0.2,2.1,0.6c0.6,0.4,1.3,0.9,1.8,1.6C59.4,50.8,58.7,52.7,58,55.1z M81.3,60.8
		c-0.4,0.7-0.9,1.3-1.5,1.8c-0.6,0.5-1.3,0.9-2.1,1.1c-0.7,0.3-1.5,0.4-2.3,0.4s-1.5-0.2-2.2-0.5c-0.7-0.3-1.3-0.7-1.8-1.1
		c-0.5-0.4-0.9-0.9-1.2-1.3c-0.2-0.3-0.3-0.5-0.3-0.8c0.2-0.6,0.5-1.2,0.6-1.8c0-0.1,0.1-0.2,0.1-0.3c0.1,0,0.1-0.1,0.2-0.1
		c0.7-0.4,1.4-0.7,2.3-1c0.8-0.3,1.6-0.4,2.3-0.6c0.7-0.1,1-0.3,1-0.5c0-0.3-0.1-0.4-0.2-0.6c-0.1-0.1-0.1-0.1-0.2-0.1
		c0.1,0.1-0.3,0.1-1.1,0.1c-0.8,0-1.8,0.2-3.1,0.5c1-1.3,2.1-2.9,3.3-4.6c1.2-1.7,2.4-3.4,3.5-5c0.2,0.8,0.5,1.8,0.8,2.8
		c0.4,1.1,0.7,2.2,1.1,3.3c0.4,1.1,0.7,2.2,1,3.2c0.3,1,0.4,1.9,0.4,2.7C81.9,59.4,81.7,60.1,81.3,60.8z"/>
	<path fill="#FFFFFF" d="M231.2,44.1c0.1-0.2,0.1-0.4,0.1-0.5c0-0.1,0-0.3,0-0.4c0-0.3,0-0.6-0.1-0.8c-0.2-0.6-0.5-1.2-1-1.7
		s-1-0.9-1.5-1.2c-0.5-0.3-1-0.6-1.4-0.8c-0.4-0.2-0.6-0.3-0.6-0.4c-0.2,0-0.3,0.2-0.5,0.4c-0.2,0.3-0.4,0.7-0.6,1.1
		c-0.2,0.4-0.3,0.9-0.4,1.3c-0.1,0.5-0.1,0.8-0.1,1.1c-0.5,0.9-1.1,1.9-1.7,3.1c-0.6,1.2-1.3,2.4-2,3.8c-0.7,1.3-1.4,2.6-2.2,3.9
		c-0.6,1.1-1.2,2-1.7,2.9c-0.1,0-0.2-0.1-0.3-0.1l-0.2,0.1c-0.1,0.2-0.2,0.4-0.3,0.6c-0.7,0.2-1.2,0.6-1.6,1.2
		c-0.5,0.7-0.7,1.6-0.7,2.6c0,0.1,0,0.1,0,0.2c-0.6,0.7-1.2,1.4-1.8,1.9c-1.6,1.3-3,2-4.1,2c-0.7,0-1.2-0.2-1.3-0.6
		c-0.2-0.4-0.3-1-0.3-1.8c0-2.2,0.4-4.1,1.2-5.8c0.8-1.7,1.8-3.6,2.9-5.6c0.4-0.8,0.7-1.6,0.7-2.3c0-1.3-0.5-2.3-1.5-3.2
		c-1-0.8-1.9-1.5-2.8-1.9c-0.1,0.4-0.2,0.8-0.4,1.3c-0.2,0.4-0.4,1-0.8,1.7c-0.3,0.7-0.7,1.7-1.2,2.8c-0.4,1.2-1,2.7-1.5,4.7
		c-1.3,4.1-2.7,7-4.2,8.7c-1.5,1.7-2.9,2.5-3.9,2.5c-0.8,0-1.3-0.3-1.5-0.8c-0.2-0.5-0.3-1.2-0.3-2.1c0-1.5,0.4-3.3,1.1-5.2
		c0.7-1.9,1.6-3.7,2.5-5.5c0.9-1.8,1.8-3.4,2.5-4.8c0.7-1.4,1.1-2.5,1.1-3.2c0-0.6-0.2-1.1-0.7-1.7c-0.5-0.5-0.9-1-1.4-1.5
		c-0.5-0.4-1-0.8-1.5-1.1c-0.5-0.3-0.8-0.4-0.9-0.4l-2.1,5c-0.4,0.7-0.9,1.7-1.4,3c-0.6,1.3-1.1,2.7-1.7,4.2c-0.5,1.5-1,3.1-1.4,4.8
		c-0.3,1.2-0.4,2.3-0.5,3.4c-0.9,1.5-1.9,2.6-2.9,3.5c-1.6,1.3-3,2-4.1,2c-0.7,0-1.2-0.2-1.3-0.6c-0.2-0.4-0.3-1-0.3-1.8
		c0-2.2,0.4-4.1,1.2-5.8c0.8-1.7,1.8-3.6,2.9-5.6c0.4-0.8,0.7-1.6,0.7-2.3c0-1.3-0.5-2.3-1.5-3.2c-1-0.8-1.9-1.5-2.8-1.9
		c-0.1,0.4-0.2,0.8-0.4,1.3c-0.2,0.4-0.4,1-0.8,1.7c-0.3,0.7-0.7,1.7-1.2,2.8c-0.4,1.2-1,2.7-1.5,4.7c-1.3,4.1-2.7,7-4.2,8.7
		c-1.5,1.7-2.9,2.5-3.9,2.5c-0.8,0-1.3-0.3-1.5-0.8c-0.2-0.5-0.3-1.2-0.3-2.1c0-1.5,0.4-3.3,1.1-5.2c0.7-1.9,1.6-3.7,2.5-5.5
		c0.9-1.8,1.8-3.4,2.5-4.8c0.7-1.4,1.1-2.5,1.1-3.2c0-0.6-0.2-1.1-0.7-1.7c-0.5-0.5-0.9-1-1.4-1.5c-0.5-0.4-1-0.8-1.5-1.1
		c-0.5-0.3-0.8-0.4-0.9-0.4l-2.1,5c-0.4,0.7-0.9,1.7-1.4,3c-0.6,1.3-1.1,2.7-1.7,4.2c-0.5,1.5-1,3.1-1.4,4.8
		c-0.2,0.8-0.3,1.7-0.4,2.5c-0.7,1.2-1.5,2.2-2.2,2.9c-1.4,1.3-2.5,2-3.3,2c-0.6,0-0.9-0.2-1.1-0.7c-0.2-0.5-0.2-1.1-0.2-1.8
		c0-1.3,0.2-2.6,0.7-3.9c0.5-1.3,1.1-2.6,1.7-3.9c0.7-1.3,1.4-2.5,2.1-3.7c0.7-1.2,1.4-2.3,1.9-3.4c0.3-0.3,0.4-0.6,0.5-1.2
		c0.1-0.5,0.1-0.9,0.1-1.1c0-0.6-0.2-1.1-0.7-1.7c-0.4-0.5-0.9-1.1-1.4-1.5c-0.5-0.5-1-0.9-1.5-1.2c-0.5-0.3-0.8-0.4-0.8-0.4
		c-0.2,0.9-0.4,1.6-0.7,2.1c-0.3,0.5-0.6,1-1.1,1.6c-0.5,0.6-1.1,1.4-1.9,2.3c-0.8,0.9-1.7,2.2-2.9,3.9c-1.2,1.6-2.5,3.8-4.1,6.5
		c-1.6,2.7-3.4,6-5.5,10.1c-0.1-0.3-0.1-0.6-0.1-1.2c0-1.9,0.4-3.8,1.2-5.5s1.6-3.4,2.6-5c0.9-1.6,1.8-3,2.6-4.4
		c0.8-1.3,1.2-2.6,1.2-3.7c0-0.5-0.2-1.1-0.6-1.6c-0.4-0.6-0.8-1.1-1.3-1.6c-0.5-0.5-1-0.9-1.5-1.2c-0.5-0.3-0.9-0.5-1.1-0.5
		c-0.1,0.4-0.4,1.2-0.8,2.3c-0.4,1.1-0.8,2-1.2,2.7c-0.1,0.3-0.5,0.9-1.1,2.1c-0.6,1.1-1.2,2.5-1.8,4.2c-0.6,1.7-1.2,3.5-1.7,5.6
		c-0.3,1.4-0.6,2.7-0.7,4.1c-0.4,0.5-0.8,0.9-1.3,1.2c-1.6,1.3-3,2-4,2c-1.1,0-1.6-0.7-1.6-2c0-1.6,0.5-3.8,1.5-6.6
		c1-2.8,2.2-5.6,3.5-8.5c1.3-2.9,2.6-5.6,3.8-8c1.2-2.5,2.1-4.2,2.5-5.2c0.2-0.5,0.3-1,0.4-1.3c0.1-0.4,0.1-0.7,0.1-1.1
		c0-0.7-0.3-1.3-0.8-1.9c-0.5-0.5-1.1-1-1.7-1.4c-0.6-0.4-1.3-0.7-1.8-0.9c-0.6-0.2-0.9-0.4-1.1-0.4c0,0.4-0.1,0.9-0.2,1.4
		c-0.2,0.6-0.3,1.2-0.5,1.7l-0.7,2c-0.4,0.9-0.9,2.2-1.7,4c-0.7,1.8-1.6,3.9-2.6,6.3c-0.6-0.3-1.3-0.6-2.1-0.8
		c-0.8-0.2-1.7-0.3-2.6-0.3c-2.1,0-4,0.6-5.8,1.7c-1.7,1.1-3.2,2.5-4.4,4.2c-1.2,1.7-2.2,3.5-2.8,5.3c-0.6,1.9-1,3.6-1,5.2
		c0,0.6,0.1,1.3,0.2,2c-0.8,1.8-1.6,3.2-2.5,4.3c-1.4,1.8-2.6,2.6-3.5,2.6c-0.9,0-1.3-1.1-1.3-3.2c0-1.2,0.2-2.3,0.5-3.6
		c0.4-1.2,0.8-2.4,1.3-3.6c0.5-1.2,1.1-2.3,1.7-3.4c0.6-1.1,1.2-2.2,1.7-3.1h0.1c0.3-0.5,0.5-1,0.7-1.5c0.2-0.5,0.3-1,0.3-1.5
		c0-0.6-0.2-1.1-0.7-1.7c-0.4-0.5-1-1.1-1.5-1.5c-0.6-0.5-1.1-0.9-1.6-1.2c-0.5-0.3-0.8-0.4-0.9-0.4c-0.1,0.1-0.1,0.3-0.1,0.5
		c0,0.2-0.1,0.4-0.2,0.6c-0.7-0.4-1.5-0.9-2.3-1.3c-0.8-0.4-1.9-0.6-3.3-0.6c-2.1,0-3.9,0.5-5.6,1.5c-1.7,1-3.2,2.3-4.4,3.9
		c-1.3,1.6-2.2,3.4-2.9,5.3c-0.7,2-1.1,3.8-1.1,5.6c0,0.8,0.1,1.7,0.3,2.7c0.2,1.1,0.5,2.1,1.1,3.1c0.5,1,1.2,1.9,2.2,2.6
		c0.9,0.7,2.1,1.1,3.6,1.1c1.1,0,2-0.1,2.7-0.4c0.7-0.3,1.4-0.6,1.9-0.9c0.5-0.4,1-0.7,1.3-1.2c0.4-0.4,0.7-0.8,0.9-1.1
		c0.4,2,1.2,3.4,2.2,4.2c1,0.8,2,1.2,2.9,1.2c1.4,0,2.7-0.6,3.8-1.9c1.1-1.3,2.1-2.6,2.8-4.2c0.2-0.4,0.3-0.7,0.5-1.1
		c0.2,0.7,0.5,1.4,0.9,2c0.6,1,1.3,1.8,2.3,2.5c1,0.7,2.2,1,3.6,1c1.7,0,3.1-0.4,4.3-1.3c1.2-0.8,2.1-1.5,2.6-2c0.3,1.2,1,2,2,2.5
		c1,0.4,1.8,0.6,2.6,0.6c1,0,1.8-0.2,2.6-0.5c0.8-0.3,1.5-0.7,2.1-1.2c0.5-0.4,0.9-0.8,1.2-1.2c0.1,1.4,0.3,2.6,0.7,3.6
		c0.5,1.2,1.5,1.8,3.1,1.8c0.5,0,1-0.2,1.4-0.6c0.4-0.4,0.8-0.8,1.1-1.3c0.3-0.5,0.6-1.1,1-1.9c0.2-0.7,0.6-1.8,1.3-3.2
		c0.7-1.4,1.4-3,2.3-4.6c0.8-1.6,1.7-3.2,2.6-4.8c0.9-1.6,1.6-2.9,2.2-4c-0.6,1.7-1.2,3.3-1.5,4.7c-0.4,1.4-0.6,2.9-0.6,4.7
		c0,2.1,0.4,3.8,1.3,5.1c0.6,0.8,1.2,1.3,1.8,1.5c0.6,0.3,1.3,0.4,1.8,0.4c1.4,0,2.7-0.5,3.8-1.6c0.9-0.9,1.7-1.9,2.4-2.9
		c0.1,1.9,0.7,3.3,1.6,4.3c1.1,1.2,2.2,1.8,3.4,1.8c1,0,2-0.3,2.9-0.8c0.9-0.5,1.7-1.1,2.4-1.8c-0.4,1-0.7,1.7-1,2.3
		c-0.3,0.6-1,0.9-2.3,0.9c-0.4,0-0.9,0-1.3,0c-0.4,0-0.9,0-1.4,0c-0.4,0-1,0.1-1.8,0.2c-0.8,0.1-1.7,0.4-2.6,0.8
		c-0.9,0.4-1.6,1-2.3,1.8c-0.6,0.8-1,1.8-1,3c0,1.2,0.3,2.2,0.8,2.8c0.5,0.7,1.2,1.2,1.8,1.5c0.7,0.3,1.3,0.5,2,0.6
		c0.6,0.1,1.1,0.1,1.3,0.1c1.5,0,3-0.4,4.5-1.3c1.5-0.9,2.9-2.4,4.1-4.7c1.9,0.6,3.9,1.2,5.8,1.7c2,0.6,3.6,0.9,5,0.9
		c0.4,0,0.9-0.1,1.2-0.1c0.1,0.5,0.3,1,0.6,1.3c0.5,0.7,1.2,1.2,1.8,1.5c0.7,0.3,1.3,0.5,2,0.6c0.6,0.1,1.1,0.1,1.3,0.1
		c1.5,0,3-0.4,4.5-1.3c1.5-0.9,2.9-2.4,4.1-4.7c1.9,0.6,3.9,1.2,5.8,1.7c2,0.6,3.6,0.9,5,0.9c1.5,0,2.7-0.6,3.5-1.7
		c0.8-1.1,1.2-2.3,1.2-3.6c-0.3,0.1-0.8,0.1-1.4,0.1c-1.7,0-3.5-0.2-5.4-0.5c-1.9-0.3-4-0.7-6.4-1.3c0.2-0.4,0.4-0.9,0.7-1.3
		c0.3-0.4,0.5-0.9,0.7-1.4c0.6,0.7,1.2,1.2,1.9,1.4c0.7,0.3,1.4,0.4,2.1,0.4c2.1,0,3.7-0.6,5-1.7c0.8-0.8,1.5-1.5,2.1-2.4
		c0.3,0.7,0.8,1.4,1.4,2c0.7,0.7,1.6,1.3,2.6,1.8c1.1,0.5,2.3,0.7,3.8,0.7c1.3,0,2.6-0.2,3.9-0.6c1.3-0.4,2.4-1,3.5-1.9
		c1-0.8,1.9-1.9,2.5-3.1c0.6-1.3,1-2.7,1-4.3c-0.3-3-0.8-5.6-1.4-7.9C231.6,47.5,231.2,45.6,231.2,44.1z M102.2,55.1
		c-0.7,2.3-1.1,4.6-1.1,6.7c-0.8,1-1.6,1.7-2.6,2.3c-1,0.6-2,0.9-3.1,0.9c-1.1,0-1.9-0.2-2.6-0.6c-0.6-0.4-1.1-0.9-1.4-1.5
		c-0.4-0.6-0.6-1.3-0.7-2c-0.1-0.7-0.1-1.4-0.1-2.1c0-1.4,0.3-2.8,0.9-4.2c0.6-1.4,1.4-2.7,2.4-3.8c1-1.1,2-2,3.1-2.7
		c1.1-0.7,2.2-1.1,3.3-1.1c0.8,0,1.5,0.2,2.1,0.6c0.6,0.4,1.3,0.9,1.8,1.6C103.7,50.8,102.9,52.7,102.2,55.1z M127.7,55
		c-0.5,2.2-0.8,4.3-0.8,6.1c0,0.6,0,1.1,0.1,1.3c-0.6,0.9-1.4,1.6-2.4,2c-0.9,0.5-1.9,0.7-2.9,0.7c-1.4,0-2.7-0.4-3.8-1.3
		c-1.1-0.9-1.7-2.2-1.7-4.1c0-1.4,0.3-2.9,0.8-4.3c0.5-1.5,1.3-2.8,2.2-4.1c0.9-1.3,1.9-2.3,3.1-3.1c1.2-0.8,2.4-1.2,3.7-1.2
		c1.3,0,2.5,0.4,3.6,1.3C128.8,50.5,128.2,52.7,127.7,55z M171.7,72.1c-0.1,0-0.3,0-0.5,0c-0.2,0-0.4,0-0.6,0c-0.5,0-0.9,0-1.1,0.1
		c-0.9,1.6-1.8,2.7-2.7,3.3c-0.9,0.6-1.8,0.9-2.6,0.9c-0.8,0-1.5-0.2-2.2-0.6c-0.7-0.4-1-1-1-1.8c0-1.2,0.5-2,1.4-2.5
		c0.9-0.5,1.9-0.7,3-0.7c0.7,0.1,1.4,0.2,2.2,0.3c0.7,0.2,1.5,0.3,2.2,0.4l2.4,0.6H171.7z M198.2,72.1c-0.1,0-0.3,0-0.5,0
		c-0.2,0-0.4,0-0.6,0c-0.5,0-0.9,0-1.1,0.1c-0.9,1.6-1.8,2.7-2.7,3.3c-0.9,0.6-1.8,0.9-2.6,0.9c-0.8,0-1.5-0.2-2.2-0.6
		c-0.7-0.4-1-1-1-1.8c0.2-0.2,0.4-0.4,0.5-0.6c0.4-0.6,0.8-1.3,1-2c0.9-0.5,1.9-0.7,2.9-0.7c0.7,0.1,1.4,0.2,2.2,0.3
		c0.7,0.2,1.5,0.3,2.2,0.4l2.4,0.6H198.2z M198.2,66.9c-0.3,0.6-1,0.9-2.3,0.9c-0.4,0-0.9,0-1.3,0c-0.4,0-0.9,0-1.4,0
		c-0.4,0-1,0.1-1.8,0.2c-0.8,0.1-1.7,0.4-2.6,0.8c-0.6,0.3-1.2,0.7-1.7,1.2c-1.5,0-3-0.2-4.7-0.5c-1.9-0.3-4-0.7-6.4-1.3
		c0.2-0.4,0.4-0.9,0.7-1.3c0.3-0.4,0.5-0.9,0.7-1.4c0.6,0.7,1.2,1.2,1.9,1.4c0.7,0.3,1.4,0.4,2.1,0.4c2.1,0,3.7-0.6,5-1.7
		c1.1-1,2-2.1,2.7-3.2c0.2,1.3,0.7,2.3,1.5,3.1c1.1,1.2,2.2,1.8,3.4,1.8c1,0,2-0.3,2.9-0.8c0.9-0.5,1.7-1.1,2.4-1.8
		C198.8,65.5,198.5,66.3,198.2,66.9z M228.1,60.8c-0.4,0.7-0.9,1.3-1.5,1.8c-0.6,0.5-1.3,0.9-2.1,1.1c-0.7,0.3-1.5,0.4-2.3,0.4
		s-1.5-0.2-2.2-0.5c-0.7-0.3-1.3-0.7-1.8-1.1c-0.5-0.4-0.9-0.9-1.2-1.3c-0.2-0.4-0.4-0.7-0.4-1c0.3-0.6,0.5-1.2,0.6-1.8
		c0.1-0.1,0.2-0.2,0.4-0.3c0.7-0.4,1.4-0.7,2.3-1c0.8-0.3,1.6-0.4,2.3-0.6c0.7-0.1,1-0.3,1-0.5c0-0.3-0.1-0.4-0.2-0.6
		c-0.1-0.1-0.1-0.1-0.2-0.1c0.1,0.1-0.3,0.1-1.1,0.1c-0.8,0-1.8,0.2-3.1,0.5c1-1.3,2.1-2.9,3.3-4.6c1.2-1.7,2.4-3.4,3.5-5
		c0.2,0.8,0.5,1.8,0.8,2.8c0.4,1.1,0.7,2.2,1.1,3.3c0.4,1.1,0.7,2.2,1,3.2c0.3,1,0.4,1.9,0.4,2.7C228.6,59.4,228.5,60.1,228.1,60.8z
		"/>
	<path fill="#FFFFFF" d="M226.7,38.3C226.7,38.3,226.7,38.3,226.7,38.3C226.8,38.3,226.8,38.3,226.7,38.3L226.7,38.3z"/>
	<path fill="#FFFFFF" d="M248.3,27.2c-0.4-0.6-1-0.9-1.9-0.9c-0.1,0-0.2,0-0.3,0c-0.1,0-0.2,0-0.3,0h-0.3c0.1,0.6,0.2,1.3,0.3,2
		c0.1,0.7,0.1,1.3,0.1,1.8c0,0.7-0.1,1.5-0.3,2.5c-0.2,1-0.8,2-1.6,3.1c-0.7,1-1.3,1.6-1.9,2c-0.5,0.4-0.9,0.6-0.9,0.8
		c0,0.2,0.1,0.4,0.2,0.5c0,0,0.1,0.1,0.1,0.1c0.2,0,0.6-0.3,1.3-0.7c0.8-0.4,1.7-1.1,2.6-2c0.9-0.9,1.7-1.9,2.5-3.2
		c0.7-1.3,1.1-2.6,1.1-4.2C248.9,28.4,248.7,27.8,248.3,27.2z"/>
	<path fill="#FFFFFF" d="M241.4,39.1C241.4,39.2,241.4,39.2,241.4,39.1C241.5,39.2,241.5,39.2,241.4,39.1z"/>
</g>
<g>
	<path fill="#FFFFFF" d="M213.6,66.2c-1.3,1.2-3,1.7-5,1.7c-0.7,0-1.4-0.1-2.1-0.4c-0.4-0.2-0.9-0.4-1.3-0.8c0.5,0.6,1.1,1,1.6,1.2
		c0.7,0.3,1.4,0.4,2.1,0.4c2.1,0,3.7-0.6,5-1.7c0.8-0.7,1.5-1.5,2-2.2c-0.1-0.2-0.2-0.3-0.3-0.5C215.2,64.7,214.4,65.5,213.6,66.2z"
		/>
	<path fill="#FFFFFF" d="M174.2,42.2c0.4,0.5,0.7,1.1,0.7,1.7c0,0.7-0.4,1.8-1.1,3.2c-0.7,1.4-1.6,3-2.5,4.8
		c-0.9,1.8-1.8,3.6-2.5,5.5c-0.7,1.9-1.1,3.6-1.1,5.2c0,0.8,0.1,1.5,0.3,2.1c0.1,0.3,0.3,0.4,0.5,0.6c0-0.1-0.1-0.1-0.1-0.2
		c-0.2-0.5-0.3-1.2-0.3-2.1c0-1.5,0.4-3.3,1.1-5.2c0.7-1.9,1.6-3.7,2.5-5.5c0.9-1.8,1.8-3.4,2.5-4.8c0.7-1.4,1.1-2.5,1.1-3.2
		c0-0.6-0.2-1.1-0.7-1.7c-0.3-0.4-0.6-0.7-1-1C173.8,41.7,174,42,174.2,42.2z"/>
	<path fill="#FFFFFF" d="M226,47.2c-1.1,1.6-2.2,3.3-3.5,5c-1.2,1.7-2.3,3.2-3.3,4.6c0.3-0.1,0.5-0.1,0.8-0.2c0.9-1.2,1.8-2.5,2.9-4
		c1.1-1.6,2.2-3.2,3.3-4.7C226.2,47.7,226.1,47.4,226,47.2z"/>
	<path fill="#FFFFFF" d="M212.4,48.9c0,0.7-0.2,1.5-0.7,2.3c-1.2,2.1-2.1,3.9-2.9,5.6c-0.8,1.7-1.2,3.6-1.2,5.8
		c0,0.8,0.1,1.4,0.3,1.8c0.1,0.2,0.2,0.3,0.4,0.4c0,0,0,0,0,0c-0.2-0.4-0.3-1-0.3-1.8c0-2.2,0.4-4.1,1.2-5.8
		c0.8-1.7,1.8-3.6,2.9-5.6c0.4-0.8,0.7-1.6,0.7-2.3c0-1.2-0.5-2.3-1.4-3.1C212,46.9,212.4,47.8,212.4,48.9z"/>
	<path fill="#FFFFFF" d="M200.7,42.2c0.4,0.5,0.7,1.1,0.7,1.7c0,0.7-0.4,1.8-1.1,3.2c-0.7,1.4-1.6,3-2.5,4.8
		c-0.9,1.8-1.8,3.6-2.5,5.5c-0.7,1.9-1.1,3.6-1.1,5.2c0,0.8,0.1,1.5,0.3,2.1c0.1,0.3,0.3,0.4,0.5,0.6c0-0.1-0.1-0.1-0.1-0.2
		c-0.2-0.5-0.3-1.2-0.3-2.1c0-1.5,0.4-3.3,1.1-5.2c0.7-1.9,1.6-3.7,2.5-5.5c0.9-1.8,1.8-3.4,2.5-4.8c0.7-1.4,1.1-2.5,1.1-3.2
		c0-0.6-0.2-1.1-0.7-1.7c-0.3-0.4-0.6-0.7-1-1C200.3,41.7,200.5,42,200.7,42.2z"/>
	<path fill="#FFFFFF" d="M185.9,48.9c0,0.7-0.2,1.5-0.7,2.3c-1.2,2.1-2.1,3.9-2.9,5.6c-0.8,1.7-1.2,3.6-1.2,5.8
		c0,0.8,0.1,1.4,0.3,1.8c0.1,0.2,0.2,0.3,0.4,0.4c0,0,0,0,0,0c-0.2-0.4-0.3-1-0.3-1.8c0-2.2,0.4-4.1,1.2-5.8
		c0.8-1.7,1.8-3.6,2.9-5.6c0.4-0.8,0.7-1.6,0.7-2.3c0-1.2-0.5-2.3-1.4-3.1C185.5,46.9,185.9,47.8,185.9,48.9z"/>
	<path fill="#FFFFFF" d="M219,63.3C219,63.3,219,63.3,219,63.3c-0.3-0.3-0.6-0.6-0.8-1c-0.2-0.4-0.4-0.7-0.4-1
		c0.3-0.6,0.5-1.2,0.6-1.8c0.1-0.1,0.2-0.2,0.4-0.3c0.7-0.4,1.4-0.7,2.3-1c0.8-0.3,1.6-0.4,2.3-0.6c0.7-0.1,1-0.3,1-0.5
		c0-0.3-0.1-0.4-0.2-0.6c-0.1-0.1-0.1-0.1-0.2-0.1c0,0,0,0,0,0c0,0.1,0,0.2,0,0.3c0,0.2-0.3,0.4-1,0.5c-0.7,0.1-1.4,0.3-2.3,0.6
		c-0.8,0.3-1.6,0.6-2.3,1c-0.1,0.1-0.3,0.2-0.4,0.3c-0.2,0.6-0.4,1.1-0.6,1.8c0.1,0.3,0.2,0.6,0.4,1C218.1,62.4,218.5,62.9,219,63.3
		z"/>
	<path fill="#FFFFFF" d="M162.6,76.3c-0.3-0.3-0.4-0.8-0.4-1.3c0-1.2,0.5-2,1.4-2.5c0.9-0.5,1.9-0.7,3-0.7c0.7,0.1,1.4,0.2,2.2,0.3
		c0.7,0.2,1.5,0.3,2.2,0.4l0.4,0.1c0,0,0,0,0.1,0c0.2,0,0.4,0,0.6,0c0.2,0,0.4,0,0.5,0h0.5l-2.4-0.6c-0.7-0.1-1.4-0.3-2.2-0.4
		c-0.7-0.2-1.5-0.3-2.2-0.3c-1.1,0-2.1,0.2-3,0.7c-0.9,0.5-1.4,1.3-1.4,2.5C161.8,75.4,162.1,75.9,162.6,76.3z"/>
	<path fill="#FFFFFF" d="M191.7,66.6c1.1,1.1,2.2,1.7,3.3,1.7c1,0,2-0.3,2.9-0.8c0.6-0.3,1.1-0.7,1.6-1.1c0.1-0.3,0.3-0.7,0.4-1.1
		c-0.7,0.7-1.5,1.3-2.4,1.8c-0.9,0.5-1.9,0.8-2.9,0.8C193.7,67.9,192.7,67.5,191.7,66.6z"/>
	<path fill="#FFFFFF" d="M204.4,67.9c0.3-0.4,0.5-0.9,0.7-1.4c-0.1-0.1-0.2-0.3-0.4-0.4c-0.2,0.5-0.4,1-0.7,1.4
		c-0.3,0.4-0.5,0.9-0.7,1.3c0.2,0,0.3,0.1,0.5,0.1C204,68.6,204.2,68.3,204.4,67.9z"/>
	<path fill="#FFFFFF" d="M165.3,66.6c1.1,1.1,2.2,1.7,3.3,1.7c1,0,2-0.3,2.9-0.8c0.6-0.3,1.1-0.7,1.6-1.1c0.1-0.3,0.3-0.7,0.4-1.1
		c-0.7,0.7-1.5,1.3-2.4,1.8c-0.9,0.5-1.9,0.8-2.9,0.8C167.2,67.9,166.2,67.5,165.3,66.6z"/>
	<path fill="#FFFFFF" d="M189.1,76.3c-0.2-0.3-0.4-0.7-0.4-1.2c0.2-0.2,0.4-0.4,0.5-0.6c0.4-0.6,0.8-1.3,1-2
		c0.9-0.5,1.9-0.7,2.9-0.7c0.7,0.1,1.4,0.2,2.2,0.3c0.7,0.2,1.5,0.3,2.2,0.4l0.4,0.1c0,0,0,0,0.1,0c0.2,0,0.4,0,0.6,0
		c0.2,0,0.4,0,0.5,0h0.5l-2.4-0.6c-0.7-0.1-1.4-0.3-2.2-0.4c-0.7-0.2-1.5-0.3-2.2-0.3c-1.1,0-2,0.2-2.9,0.7c-0.2,0.7-0.5,1.3-1,2
		c-0.2,0.2-0.3,0.4-0.5,0.6C188.3,75.4,188.6,76,189.1,76.3z"/>
	<path fill="#FFFFFF" d="M177.9,67.9c0.3-0.4,0.5-0.9,0.7-1.4c-0.1-0.1-0.2-0.3-0.4-0.4c-0.2,0.5-0.4,1-0.7,1.4
		c-0.3,0.4-0.5,0.9-0.7,1.3c0.2,0,0.3,0.1,0.5,0.1C177.5,68.6,177.7,68.3,177.9,67.9z"/>
	<path fill="#FFFFFF" d="M178.8,66.7c0.5,0.6,1.1,1,1.6,1.2c0.7,0.3,1.4,0.4,2.1,0.4c2.1,0,3.7-0.6,5-1.7c1-0.9,1.8-1.9,2.5-2.9
		c-0.1-0.2-0.1-0.4-0.2-0.7c-0.7,1.1-1.6,2.2-2.7,3.2c-1.3,1.2-3,1.7-5,1.7c-0.7,0-1.4-0.1-2.1-0.4
		C179.6,67.4,179.2,67.1,178.8,66.7z"/>
	<path fill="#FFFFFF" d="M112.1,45.8c0.4,0.5,0.7,1.1,0.7,1.7c0,0.5-0.1,1-0.3,1.5c-0.2,0.5-0.4,1-0.7,1.5h-0.1
		c-0.5,1-1.1,2-1.7,3.1c-0.6,1.1-1.2,2.3-1.7,3.4c-0.5,1.2-0.9,2.3-1.3,3.6c-0.4,1.2-0.5,2.4-0.5,3.6c0,1.7,0.3,2.7,0.9,3
		c-0.3-0.5-0.5-1.4-0.5-2.7c0-1.2,0.2-2.3,0.5-3.6c0.4-1.2,0.8-2.4,1.3-3.6c0.5-1.2,1.1-2.3,1.7-3.4c0.6-1.1,1.2-2.2,1.7-3.1h0.1
		c0.3-0.5,0.5-1,0.7-1.5c0.2-0.5,0.3-1,0.3-1.5c0-0.6-0.2-1.1-0.7-1.7c-0.3-0.3-0.6-0.7-0.9-1C111.8,45.4,112,45.6,112.1,45.8z"/>
	<path fill="#FFFFFF" d="M111.4,68.3c1.1-1.3,2.1-2.6,2.8-4.2c0.1-0.3,0.3-0.5,0.4-0.8c-0.1-0.2-0.2-0.4-0.3-0.6
		c-0.2,0.4-0.3,0.7-0.5,1.1c-0.8,1.5-1.7,2.9-2.8,4.2c-1.1,1.3-2.4,1.9-3.8,1.9c-1,0-1.9-0.4-2.9-1.2c0,0-0.1-0.1-0.1-0.1
		c0.2,0.2,0.3,0.3,0.5,0.5c1,0.8,2,1.2,2.9,1.2C109,70.1,110.3,69.5,111.4,68.3z"/>
	<path fill="#FFFFFF" d="M163.3,62.6c0-0.3-0.1-0.5-0.1-0.8c-0.7,1.1-1.5,2-2.4,2.9c-1.1,1.1-2.4,1.6-3.8,1.6
		c-0.6,0-1.2-0.1-1.8-0.4c-0.4-0.1-0.7-0.4-1.1-0.7c0.5,0.5,0.9,0.9,1.5,1.1c0.6,0.3,1.3,0.4,1.8,0.4c1.4,0,2.7-0.5,3.8-1.6
		C162,64.4,162.7,63.5,163.3,62.6z"/>
	<path fill="#FFFFFF" d="M102.1,64.4c-0.3,0.3-0.6,0.7-0.9,1.1c-0.4,0.4-0.8,0.8-1.3,1.2c-0.5,0.4-1.2,0.7-1.9,0.9
		c-0.7,0.3-1.7,0.4-2.7,0.4c-1.5,0-2.7-0.4-3.6-1.1c-0.2-0.1-0.4-0.3-0.5-0.5c0.3,0.3,0.6,0.6,0.9,0.8c0.9,0.7,2.1,1.1,3.6,1.1
		c1.1,0,2-0.1,2.7-0.4c0.7-0.3,1.4-0.6,1.9-0.9c0.5-0.4,1-0.7,1.3-1.2c0.3-0.3,0.5-0.6,0.7-0.8C102.2,64.8,102.2,64.6,102.1,64.4z"
		/>
	<path fill="#FFFFFF" d="M92.3,63.6c0.2,0.4,0.6,0.8,0.9,1.1c-0.2-0.2-0.4-0.5-0.5-0.8c-0.4-0.6-0.6-1.3-0.7-2
		c-0.1-0.7-0.1-1.4-0.1-2.1c0-1.4,0.3-2.8,0.9-4.2c0.6-1.4,1.4-2.7,2.4-3.8c1-1.1,2-2,3.1-2.7c1.1-0.7,2.2-1.1,3.3-1.1
		c0.8,0,1.5,0.2,2.1,0.6c0.5,0.3,1,0.7,1.4,1.2c0,0,0,0,0,0c-0.6-0.6-1.2-1.2-1.8-1.6c-0.6-0.4-1.3-0.6-2.1-0.6
		c-1.1,0-2.2,0.4-3.3,1.1c-1.1,0.7-2.2,1.6-3.1,2.7c-1,1.1-1.7,2.4-2.4,3.8c-0.6,1.4-0.9,2.8-0.9,4.2c0,0.7,0,1.4,0.1,2.1
		C91.7,62.3,91.9,63,92.3,63.6z"/>
	<path fill="#FFFFFF" d="M186.5,75.7c-0.4,0.1-0.8,0.1-1.2,0.1c-1.3,0-3-0.3-5-0.9c-2-0.6-3.9-1.2-5.8-1.7c-1.3,2.2-2.7,3.8-4.1,4.7
		c-1.5,0.9-3,1.3-4.5,1.3c-0.3,0-0.7,0-1.3-0.1c-0.6-0.1-1.3-0.3-2-0.6c-0.4-0.2-0.8-0.5-1.2-0.8c0.5,0.5,1,0.9,1.6,1.2
		c0.7,0.3,1.3,0.5,2,0.6c0.6,0.1,1.1,0.1,1.3,0.1c1.5,0,3-0.4,4.5-1.3c1.5-0.9,2.9-2.4,4.1-4.7c1.9,0.6,3.9,1.2,5.8,1.7
		c2,0.6,3.6,0.9,5,0.9c0.4,0,0.7,0,1-0.1C186.6,76,186.6,75.8,186.5,75.7z"/>
	<path fill="#FFFFFF" d="M232.3,45.2c0.1-0.2,0.1-0.4,0.1-0.5c0-0.1,0-0.3,0-0.4c0-0.3,0-0.6-0.1-0.8c-0.2-0.6-0.5-1.2-1-1.7
		c-0.1-0.1-0.1-0.1-0.2-0.2c0.4,0.4,0.7,0.9,0.8,1.5c0.1,0.2,0.1,0.4,0.1,0.8c0,0.1,0,0.3,0,0.4c0,0.1-0.1,0.3-0.1,0.5
		c0.1,1.5,0.4,3.5,1.1,5.8c0.6,2.3,1.1,4.9,1.4,7.9c0,1.6-0.3,3-1,4.3c-0.6,1.3-1.5,2.3-2.5,3.1c-1,0.8-2.2,1.5-3.5,1.9
		c-1.3,0.4-2.6,0.6-3.9,0.6c-1.5,0-2.7-0.2-3.8-0.7c-0.9-0.4-1.7-1-2.4-1.6c0,0,0.1,0.1,0.1,0.1c0.7,0.7,1.6,1.3,2.6,1.8
		c1.1,0.5,2.3,0.7,3.8,0.7c1.3,0,2.6-0.2,3.9-0.6c1.3-0.4,2.4-1,3.5-1.9c1-0.8,1.9-1.9,2.5-3.1c0.6-1.3,1-2.7,1-4.3
		c-0.3-3-0.8-5.6-1.4-7.9C232.7,48.7,232.3,46.8,232.3,45.2z"/>
	<path fill="#FFFFFF" d="M215.3,74.1c-0.8,1.1-2,1.7-3.5,1.7c-1.3,0-3-0.3-5-0.9c-2-0.6-3.9-1.2-5.8-1.7c-1.3,2.2-2.7,3.8-4.1,4.7
		c-1.5,0.9-3,1.3-4.5,1.3c-0.3,0-0.7,0-1.3-0.1c-0.6-0.1-1.3-0.3-2-0.6c-0.4-0.2-0.8-0.5-1.2-0.8c0.5,0.5,1,0.9,1.6,1.2
		c0.7,0.3,1.3,0.5,2,0.6c0.6,0.1,1.1,0.1,1.3,0.1c1.5,0,3-0.4,4.5-1.3c1.5-0.9,2.9-2.4,4.1-4.7c1.9,0.6,3.9,1.2,5.8,1.7
		c2,0.6,3.6,0.9,5,0.9c1.5,0,2.7-0.6,3.5-1.7c0.8-1.1,1.2-2.3,1.2-3.6c-0.1,0-0.3,0-0.4,0.1C216.4,72.1,216,73.2,215.3,74.1z"/>
	<path fill="#FFFFFF" d="M125.9,67.3c1.1-0.7,1.9-1.4,2.4-1.9c-0.1-0.2-0.1-0.3-0.2-0.5c-0.5,0.5-1.4,1.2-2.6,2
		c-1.2,0.8-2.7,1.3-4.3,1.3c-1.4,0-2.6-0.3-3.6-1c-0.4-0.3-0.7-0.5-1-0.8c0.4,0.4,0.9,0.8,1.4,1.2c1,0.7,2.2,1,3.6,1
		C123.2,68.5,124.7,68.1,125.9,67.3z"/>
	<path fill="#FFFFFF" d="M162.9,42.2c0.4,0.5,0.7,1.1,0.7,1.7c0,0.2,0,0.5-0.1,1.1c-0.1,0.5-0.3,0.9-0.5,1.2
		c-0.5,1.1-1.1,2.2-1.9,3.4c-0.7,1.2-1.4,2.4-2.1,3.7c-0.7,1.3-1.3,2.6-1.7,3.9c-0.5,1.3-0.7,2.6-0.7,3.9c0,0.7,0.1,1.3,0.2,1.8
		c0.1,0.3,0.3,0.5,0.5,0.6c0-0.1-0.1-0.1-0.1-0.2c-0.2-0.5-0.2-1.1-0.2-1.8c0-1.3,0.2-2.6,0.7-3.9c0.5-1.3,1.1-2.6,1.7-3.9
		c0.7-1.3,1.4-2.5,2.1-3.7c0.7-1.2,1.4-2.3,1.9-3.4c0.3-0.3,0.4-0.6,0.5-1.2c0.1-0.5,0.1-0.9,0.1-1.1c0-0.6-0.2-1.1-0.7-1.7
		c-0.4-0.5-0.9-1.1-1.4-1.5c0,0,0,0,0,0C162.2,41.4,162.5,41.8,162.9,42.2z"/>
	<path fill="#FFFFFF" d="M140.1,69.8c0.6,0.7,1.5,1.1,2.6,1.1c0.5,0,1-0.2,1.4-0.6c0.4-0.4,0.8-0.8,1.1-1.3c0.3-0.5,0.6-1.1,1-1.9
		c0.2-0.7,0.6-1.8,1.3-3.2c0.7-1.4,1.4-3,2.3-4.6c0.8-1.6,1.7-3.2,2.6-4.8c0.3-0.5,0.5-0.9,0.7-1.4c0.3-0.9,0.6-1.9,1-3
		c-0.6,1.1-1.3,2.4-2.2,4c-0.9,1.6-1.7,3.2-2.6,4.8c-0.8,1.6-1.6,3.2-2.3,4.6c-0.7,1.4-1.1,2.5-1.3,3.2c-0.3,0.8-0.6,1.5-1,1.9
		c-0.3,0.4-0.7,0.9-1.1,1.3c-0.4,0.4-0.9,0.6-1.4,0.6C141.4,70.4,140.7,70.2,140.1,69.8z"/>
	<path fill="#FFFFFF" d="M143.4,32.2c0,0.3,0,0.7-0.1,1.1c-0.1,0.4-0.2,0.8-0.4,1.3c-0.4,1-1.3,2.8-2.5,5.2c-1.2,2.5-2.5,5.2-3.8,8
		c-1.3,2.9-2.5,5.7-3.5,8.5c-1,2.8-1.5,5-1.5,6.6c0,0.9,0.2,1.5,0.7,1.8c-0.2-0.3-0.3-0.8-0.3-1.4c0-1.6,0.5-3.8,1.5-6.6
		c1-2.8,2.2-5.6,3.5-8.5c1.3-2.9,2.6-5.6,3.8-8c1.2-2.5,2.1-4.2,2.5-5.2c0.2-0.5,0.3-1,0.4-1.3c0.1-0.4,0.1-0.7,0.1-1.1
		c0-0.7-0.3-1.3-0.8-1.9c-0.1-0.1-0.2-0.2-0.3-0.3C143.2,31,143.4,31.6,143.4,32.2z"/>
	<path fill="#FFFFFF" d="M123.1,48.9c-1.2,0.8-2.2,1.8-3.1,3.1c-0.9,1.3-1.6,2.6-2.2,4.1c-0.5,1.5-0.8,2.9-0.8,4.3
		c0,1.8,0.5,3.1,1.5,3.9c-0.7-0.9-1.1-2-1.1-3.6c0-1.4,0.3-2.9,0.8-4.3c0.5-1.5,1.3-2.8,2.2-4.1c0.9-1.3,1.9-2.3,3.1-3.1
		c1.2-0.8,2.4-1.2,3.7-1.2c1.2,0,2.2,0.3,3.2,1c0,0,0-0.1,0-0.1c-1-0.8-2.2-1.3-3.6-1.3C125.5,47.7,124.3,48.1,123.1,48.9z"/>
	<path fill="#FFFFFF" d="M129.2,66.7c0.3,0.4,0.8,0.7,1.3,1c1,0.4,1.8,0.6,2.6,0.6c1,0,1.8-0.2,2.6-0.5c0.8-0.3,1.5-0.7,2.1-1.2
		c0.3-0.3,0.6-0.6,0.9-0.8c0-0.2,0-0.5-0.1-0.7c-0.4,0.4-0.8,0.8-1.2,1.2c-0.6,0.5-1.3,0.9-2.1,1.2c-0.8,0.3-1.6,0.5-2.6,0.5
		c-0.7,0-1.6-0.2-2.6-0.6C129.8,67.2,129.5,67,129.2,66.7z"/>
	<path fill="#FFFFFF" d="M149.7,44.2c0.4,0.6,0.6,1.1,0.6,1.6c0,1.1-0.4,2.3-1.2,3.7c-0.8,1.3-1.6,2.8-2.6,4.4
		c-0.9,1.6-1.8,3.2-2.6,5c-0.8,1.7-1.2,3.6-1.2,5.5c0,0.5,0,0.9,0.1,1.2c0.1-0.2,0.2-0.4,0.3-0.5c0-0.1,0-0.2,0-0.2
		c0-1.9,0.4-3.8,1.2-5.5c0.8-1.7,1.6-3.4,2.6-5c0.9-1.6,1.8-3,2.6-4.4c0.8-1.3,1.2-2.6,1.2-3.7c0-0.5-0.2-1.1-0.6-1.6
		c-0.4-0.6-0.8-1.1-1.3-1.6c-0.1-0.1-0.1-0.1-0.2-0.2C149,43.2,149.4,43.7,149.7,44.2z"/>
</g>
<g>
	<path fill="#FFFFFF" d="M67.3,45.2c0.2,0.2,0.4,0.4,0.5,0.6c0.4,0.5,0.7,1.1,0.7,1.7c0,0.5-0.1,1-0.3,1.5c-0.2,0.5-0.4,1-0.7,1.5
		h-0.1c-0.5,1-1.1,2-1.7,3.1c-0.6,1.1-1.2,2.3-1.7,3.4c-0.5,1.2-0.9,2.3-1.3,3.6c-0.4,1.2-0.5,2.4-0.5,3.6c0,1.7,0.3,2.7,0.9,3
		c-0.3-0.5-0.5-1.4-0.5-2.7c0-1.2,0.2-2.3,0.5-3.6c0.4-1.2,0.8-2.4,1.3-3.6c0.5-1.2,1.1-2.3,1.7-3.4c0.6-1.1,1.2-2.2,1.7-3.1h0.1
		c0.3-0.5,0.5-1,0.7-1.5c0.2-0.5,0.3-1,0.3-1.5c0-0.6-0.2-1.1-0.7-1.7C68,45.9,67.6,45.6,67.3,45.2z"/>
	<path fill="#FFFFFF" d="M48,63.6c0.2,0.4,0.6,0.8,0.9,1.1c-0.2-0.2-0.4-0.5-0.5-0.8c-0.4-0.6-0.6-1.3-0.7-2
		c-0.1-0.7-0.1-1.4-0.1-2.1c0-1.4,0.3-2.8,0.9-4.2c0.6-1.4,1.4-2.7,2.4-3.8c1-1.1,2-2,3.1-2.7c1.1-0.7,2.2-1.1,3.3-1.1
		c0.8,0,1.5,0.2,2.1,0.6c0.5,0.3,1,0.7,1.5,1.2c0,0,0,0,0,0c-0.6-0.6-1.2-1.2-1.8-1.6c-0.6-0.4-1.3-0.6-2.1-0.6
		c-1.1,0-2.2,0.4-3.3,1.1c-1.1,0.7-2.2,1.6-3.1,2.7c-1,1.1-1.7,2.4-2.4,3.8c-0.6,1.4-0.9,2.8-0.9,4.2c0,0.7,0,1.4,0.1,2.1
		C47.4,62.3,47.6,63,48,63.6z"/>
	<path fill="#FFFFFF" d="M79.3,47.2c-1.1,1.6-2.2,3.3-3.5,5c-1.2,1.7-2.3,3.2-3.3,4.6c0.3-0.1,0.5-0.1,0.8-0.2
		c0.9-1.2,1.8-2.5,2.9-4c1.1-1.6,2.2-3.2,3.3-4.7C79.4,47.7,79.4,47.4,79.3,47.2z"/>
	<path fill="#FFFFFF" d="M67.4,32.2c0.1,0.3,0.1,0.6,0.2,0.9c0.1,0.4,0.1,0.7,0.1,1c0,0.3,0,0.5,0,0.5c0,0.9-0.1,1.7-0.4,2.3
		c-0.3,0.6-0.6,1.1-0.9,1.5c-0.4,0.4-0.8,0.8-1.3,1.1c-0.9,0.4-2,0.7-3.3,0.8c-1.3,0.1-2.7,0.1-4.1-0.1c-1.4-0.2-2.8-0.4-4.1-0.7
		c-1.3-0.3-2.5-0.6-3.5-0.8c-3,0.1-6,1.1-8.8,3c-2.9,1.9-5.7,4.3-8.5,7.2c-2.8,2.9-5.6,6-8.3,9.4c-2.7,3.4-5.4,6.6-8.1,9.5
		c0.2,0,0.4,0.1,0.6,0.1c2.6-2.9,5.2-6,7.9-9.2c2.7-3.4,5.5-6.5,8.3-9.4c2.8-2.9,5.6-5.2,8.5-7.2c2.9-1.9,5.8-2.9,8.8-3
		c1,0.3,2.1,0.5,3.5,0.8c1.3,0.3,2.7,0.5,4.1,0.7c1.4,0.2,2.8,0.2,4.1,0.1c1.3-0.1,2.4-0.4,3.3-0.8c0.5-0.3,1-0.6,1.3-1.1
		c0.3-0.4,0.6-0.9,0.9-1.5c0.3-0.6,0.4-1.4,0.4-2.3c0-0.1,0-0.2,0-0.5c0-0.3,0-0.6-0.1-1c-0.1-0.4-0.1-0.7-0.2-0.9
		C67.7,32.3,67.6,32.2,67.4,32.2C67.4,32.2,67.4,32.2,67.4,32.2C67.4,32.2,67.4,32.2,67.4,32.2z"/>
	<path fill="#FFFFFF" d="M72.2,63.3C72.2,63.3,72.2,63.3,72.2,63.3c-0.3-0.3-0.6-0.6-0.8-1c-0.2-0.3-0.3-0.5-0.3-0.8
		c0.2-0.6,0.5-1.2,0.6-1.8c0-0.1,0.1-0.2,0.1-0.3c0.1,0,0.1-0.1,0.2-0.1c0.7-0.4,1.4-0.7,2.3-1c0.8-0.3,1.6-0.4,2.3-0.6
		c0.7-0.1,1-0.3,1-0.5c0-0.3-0.1-0.4-0.2-0.6c-0.1-0.1-0.1-0.1-0.2-0.1c0,0,0,0,0,0c0,0.1,0,0.2,0,0.3c0,0.2-0.3,0.4-1,0.5
		c-0.7,0.1-1.4,0.3-2.3,0.6c-0.8,0.3-1.6,0.6-2.3,1c-0.1,0-0.1,0.1-0.2,0.1c0,0.1-0.1,0.2-0.1,0.3c-0.2,0.6-0.4,1.2-0.6,1.8
		c0.1,0.2,0.2,0.5,0.3,0.8C71.4,62.4,71.8,62.9,72.2,63.3z"/>
	<path fill="#FFFFFF" d="M57.8,64.4c-0.3,0.3-0.6,0.7-0.9,1.1c-0.4,0.4-0.8,0.8-1.3,1.2c-0.5,0.4-1.2,0.7-1.9,0.9
		c-0.7,0.3-1.7,0.4-2.7,0.4c-1.5,0-2.7-0.4-3.6-1.1c-0.2-0.1-0.4-0.3-0.5-0.5c0.3,0.3,0.6,0.6,0.9,0.8c0.9,0.7,2.1,1.1,3.6,1.1
		c1.1,0,2-0.1,2.7-0.4c0.7-0.3,1.4-0.6,1.9-0.9c0.5-0.4,1-0.7,1.3-1.2c0.3-0.3,0.5-0.6,0.7-0.8C58,64.8,57.9,64.6,57.8,64.4z"/>
	<path fill="#FFFFFF" d="M69.3,64.3c-0.7,1.3-1.5,2.5-2.5,3.6c-1.1,1.3-2.4,1.9-3.8,1.9c-1,0-1.9-0.4-2.9-1.2c0,0-0.1-0.1-0.1-0.1
		c0.2,0.2,0.3,0.3,0.5,0.5c1,0.8,2,1.2,2.9,1.2c1.4,0,2.7-0.6,3.8-1.9c1-1.1,1.8-2.2,2.5-3.5C69.5,64.6,69.4,64.4,69.3,64.3z"/>
	<path fill="#FFFFFF" d="M85.6,45.2c0.1-0.2,0.1-0.4,0.1-0.5c0-0.1,0-0.3,0-0.4c0-0.3,0-0.6-0.1-0.8c-0.2-0.6-0.5-1.2-1-1.7
		c-0.1-0.1-0.1-0.1-0.2-0.2c0.4,0.4,0.7,0.9,0.8,1.5c0.1,0.2,0.1,0.4,0.1,0.8c0,0.1,0,0.3,0,0.4c0,0.1-0.1,0.3-0.1,0.5
		c0.1,1.5,0.4,3.5,1.1,5.8c0.6,2.3,1.1,4.9,1.4,7.9c0,1.6-0.3,3-1,4.3c-0.6,1.3-1.5,2.3-2.5,3.1c-1,0.8-2.2,1.5-3.5,1.9
		c-1.3,0.4-2.6,0.6-3.9,0.6c-1.5,0-2.7-0.2-3.8-0.7c-0.9-0.4-1.7-0.9-2.4-1.6c0,0,0.1,0.1,0.1,0.1c0.7,0.7,1.6,1.3,2.6,1.8
		c1.1,0.5,2.3,0.7,3.8,0.7c1.3,0,2.6-0.2,3.9-0.6c1.3-0.4,2.4-1,3.5-1.9c1-0.8,1.9-1.9,2.5-3.1c0.6-1.3,1-2.7,1-4.3
		c-0.3-3-0.8-5.6-1.4-7.9C86,48.7,85.6,46.8,85.6,45.2z"/>
	<path fill="#FFFFFF" d="M5.8,70.7c-0.3-0.3-0.5-0.7-0.8-1.2c0.5,0,1.1,0,1.7,0.1c0.4,0.1,0.8,0.1,1.3,0.1c0.1-0.1,0.3-0.2,0.4-0.4
		c-0.7,0-1.4,0-2-0.1c-0.6-0.1-1.2-0.1-1.7-0.1c0.3,0.5,0.5,0.9,0.8,1.3C5.6,70.6,5.7,70.7,5.8,70.7z"/>
	<path fill="#FFFFFF" d="M3.9,41.8c0.1,0,0.2,0,0.3-0.1c0.1-0.1,0.1-0.1,0.1-0.2v0.1c1.2-2.4,2.4-4.4,3.7-5.8c1.3-1.4,3-2.8,5.1-4
		c2.1-1.2,4.6-1.8,7.7-1.8c3.5,0,6.9,0.6,10.3,1.7c3.1,1.1,6.2,2.3,9.4,3.5c0.1,0,0.2-0.1,0.2-0.1c-3.4-1.3-6.8-2.6-10.1-3.8
		c-3.3-1.2-6.7-1.7-10.3-1.7c-3,0-5.6,0.6-7.7,1.8c-2.1,1.2-3.8,2.6-5.1,4c-1.3,1.4-2.6,3.4-3.7,5.8v-0.1c0,0.1,0,0.1-0.1,0.2
		c-0.1,0.1-0.2,0.1-0.3,0.1c-0.1,0-0.2,0-0.3,0c0,0.1,0.1,0.1,0.1,0.2C3.5,41.8,3.7,41.8,3.9,41.8z"/>
	<path fill="#FFFFFF" d="M45.1,64.3c0-0.1-0.1-0.1-0.1-0.2c-0.8,0.8-1.7,1.6-2.9,2.4c-1.6,1.2-3.7,2.2-6.2,3.2
		c-2.5,0.9-5.4,1.4-8.7,1.4c-2.1,0-4.3-0.1-6.5-0.2c-2.2-0.1-4.5-0.4-6.8-0.7c-0.5,0.4-0.9,0.9-1.5,1.4c-0.5,0.5-1.1,1-1.8,1.4
		c-0.6,0.4-1.3,0.8-2,1.1c-0.7,0.3-1.4,0.4-2.2,0.4c-0.6,0-1.2-0.2-1.9-0.5C4,73.8,3.5,73.5,3,73c0,0,0.1,0.1,0.1,0.1
		c0.5,0.6,1.2,1,1.8,1.4c0.7,0.4,1.3,0.5,1.9,0.5c0.8,0,1.5-0.1,2.2-0.4c0.7-0.3,1.4-0.7,2-1.1c0.6-0.4,1.2-0.9,1.8-1.4
		c0.5-0.5,1-1,1.5-1.4c2.3,0.3,4.6,0.5,6.8,0.7c2.2,0.1,4.4,0.2,6.5,0.2c3.3,0,6.2-0.5,8.7-1.4c2.5-0.9,4.6-2,6.2-3.2
		c1.1-0.8,2-1.6,2.7-2.3C45.3,64.5,45.2,64.4,45.1,64.3z"/>
</g>
<path fill="#FFFFFF" d="M249.5,28.3c-0.1-0.2-0.3-0.4-0.5-0.5c0,0,0.1,0.1,0.1,0.1c0.4,0.6,0.5,1.3,0.5,2c0,1.5-0.4,2.9-1.1,4.2
	c-0.7,1.3-1.6,2.3-2.5,3.2c-0.9,0.9-1.7,1.5-2.6,2c-0.6,0.3-1,0.5-1.2,0.6c0,0.1,0.1,0.3,0.2,0.3c0,0,0.1,0.1,0.1,0.1
	c0.2,0,0.6-0.3,1.3-0.7c0.8-0.4,1.7-1.1,2.6-2c0.9-0.9,1.7-1.9,2.5-3.2c0.7-1.3,1.1-2.6,1.1-4.2C250,29.6,249.8,28.9,249.5,28.3z"/>
<g>
	<path fill="#FFFFFF" d="M125.2,97.5c-0.1-0.3-0.2-0.6-0.2-1.1c0-1.3,0.4-2.7,1.1-4.2c0.7-1.5,1.4-2.9,2.1-4.2
		c0.5-0.6,0.7-1.1,0.7-1.6c0-0.6-0.2-1.1-0.5-1.5c-0.2-0.2-0.4-0.4-0.6-0.6c0.1,0.1,0.1,0.1,0.2,0.2c0.3,0.4,0.5,0.9,0.5,1.5
		c0,0.5-0.2,1-0.7,1.6c-0.7,1.3-1.4,2.7-2.1,4.2c-0.7,1.5-1.1,2.9-1.1,4.2c0,0.5,0.1,0.8,0.2,1.1C124.9,97.3,125,97.4,125.2,97.5z"
		/>
	<path fill="#FFFFFF" d="M130.6,81.3c0.2,0,0.4-0.1,0.7-0.1c0.1-0.2,0.1-0.4,0.1-0.7c0-0.5-0.2-1-0.6-1.4c-0.1-0.1-0.1-0.1-0.2-0.2
		c0.2,0.3,0.4,0.7,0.4,1.1c0,0.3-0.1,0.6-0.2,0.8C130.8,81,130.7,81.1,130.6,81.3z"/>
	<path fill="#FFFFFF" d="M132.1,83.5c-0.4,0-0.7,0.1-1,0.1c-1.2,0-2.1-0.3-2.9-0.9c-0.1,0-0.1-0.1-0.1-0.1c0.1,0.2,0.3,0.3,0.5,0.5
		c0.7,0.6,1.7,0.9,2.9,0.9c0.3,0,0.7,0,1-0.1c0.2,0,0.4-0.1,0.6-0.1c0.1-0.2,0.2-0.4,0.2-0.6C132.8,83.3,132.4,83.4,132.1,83.5z"/>
	<path fill="#FFFFFF" d="M142.3,92.4c-0.7,0-1.2-0.1-1.7-0.2c-0.5-0.1-0.8-0.3-1-0.5c-0.2,0.7-0.4,1.5-0.4,2.2
		c0,1.2,0.4,2.2,1.1,3.1c0.2,0.2,0.3,0.4,0.5,0.6c-0.1-0.1-0.1-0.1-0.2-0.2c-0.7-0.9-1.1-2-1.1-3.1c0-0.7,0.1-1.5,0.4-2.2
		c0.2,0.2,0.5,0.4,1,0.5c0.5,0.1,1,0.2,1.7,0.2c0.9,0,1.9-0.2,2.7-0.5c0.9-0.3,1.6-0.8,2.3-1.4c0.6-0.6,1.1-1.3,1.5-2.1
		c0.4-0.8,0.6-1.6,0.6-2.5s-0.4-1.7-1.1-2.4c-0.1-0.1-0.1-0.1-0.2-0.2c0.6,0.7,0.9,1.4,0.9,2.2c0,0.9-0.2,1.7-0.6,2.5
		c-0.4,0.8-0.9,1.5-1.5,2.1c-0.6,0.6-1.4,1.1-2.3,1.4C144.1,92.2,143.2,92.4,142.3,92.4z"/>
	<path fill="#FFFFFF" d="M139.6,79.2c0.2,0,0.4-0.1,0.6-0.1c0.1-0.2,0.2-0.4,0.2-0.5c0.1-0.3,0.2-0.6,0.2-0.9c0-0.4-0.1-0.8-0.4-1.2
		c-0.2-0.3-0.5-0.5-0.7-0.8c0.1,0.1,0.2,0.2,0.3,0.4c0.3,0.4,0.4,0.8,0.4,1.2c0,0.3-0.1,0.6-0.2,0.9C140,78.5,139.8,78.8,139.6,79.2
		z"/>
	<path fill="#FFFFFF" d="M137.8,96.9c-0.5,0.8-1.1,1.6-2,2.3c-0.8,0.7-1.9,1.1-3.2,1.1c-0.3,0-0.7-0.1-1-0.2
		c-0.3-0.1-0.6-0.3-0.9-0.5c0.1,0.1,0.2,0.2,0.3,0.3c0.3,0.3,0.7,0.5,1,0.6c0.4,0.1,0.7,0.2,1,0.2c1.3,0,2.3-0.4,3.2-1.1
		c0.8-0.7,1.4-1.4,1.9-2.2C137.9,97.3,137.8,97.1,137.8,96.9z"/>
	<path fill="#FFFFFF" d="M151.3,94.1C151.3,94.1,151.3,94.1,151.3,94.1c-0.7,1.1-1.4,2.1-2.2,3c-0.7,0.7-1.6,1.4-2.7,2
		c-1.1,0.6-2.4,0.9-3.8,0.9c-1.1,0-2-0.2-2.7-0.7c-0.3-0.2-0.6-0.4-0.9-0.7c0.4,0.4,0.8,0.8,1.3,1c0.7,0.5,1.6,0.7,2.7,0.7
		c1.4,0,2.7-0.3,3.8-0.9c1.1-0.6,2-1.3,2.7-2c0.8-0.9,1.5-1.9,2.2-3c0-0.1,0-0.2-0.1-0.2C151.5,94.1,151.4,94.1,151.3,94.1z"/>
	<path fill="#FFFFFF" d="M132.5,98.4c-0.1-0.2-0.2-0.4-0.2-0.7c0-0.7,0.2-1.7,0.6-2.9c0.4-1.2,0.8-2.4,1.4-3.8
		c0.6-1.4,1.2-2.7,1.9-4.1c0.7-1.4,1.3-2.6,1.9-3.8c1.1-0.1,2.1-0.2,3-0.2c0.7,0,1.4-0.1,2.1-0.1c0.6-0.2,1.2-0.3,1.8-0.4
		c-0.5,0-1,0-1.6,0c-0.8,0-1.7,0-2.7,0.1c-0.9,0.1-2,0.1-3,0.2c-0.6,1.2-1.2,2.4-1.9,3.8c-0.7,1.4-1.3,2.7-1.9,4.1
		c-0.6,1.4-1,2.6-1.4,3.8c-0.4,1.2-0.6,2.1-0.6,2.9C132,97.9,132.2,98.2,132.5,98.4z"/>
	<path fill="#FFFFFF" d="M154.5,80.2C154.5,80.1,154.4,80.1,154.5,80.2c0.1,0.2,0.3,0.4,0.4,0.6c0.2,0.4,0.4,0.9,0.4,1.5
		c0,0,0,0.2,0,0.3c0,0.2,0,0.4-0.1,0.6c0,0.2-0.1,0.4-0.1,0.6c-0.1,0.2-0.1,0.2-0.2,0.2c-0.1,0-0.3-0.1-0.5-0.2
		c-0.2-0.1-0.5-0.2-1-0.4c-0.4-0.1-1-0.3-1.8-0.4c-0.7-0.1-1.7-0.3-2.9-0.3c-0.7-0.1-1.5-0.1-2.4-0.2c-0.2,0-0.4,0-0.6,0
		c0.6,0.1,1.1,0.2,1.6,0.4c0.6,0,1.2,0.1,1.7,0.1c1.2,0.1,2.2,0.2,2.9,0.3c0.7,0.1,1.3,0.3,1.8,0.4c0.4,0.1,0.8,0.3,1,0.4
		c0.2,0.1,0.4,0.2,0.5,0.2c0.1,0,0.2-0.1,0.2-0.2c0.1-0.2,0.1-0.3,0.1-0.6c0-0.2,0-0.4,0.1-0.6c0-0.2,0-0.3,0-0.3
		c0-0.6-0.1-1.1-0.4-1.5C155,80.7,154.7,80.4,154.5,80.2z"/>
	<path fill="#FFFFFF" d="M144.6,86c-0.4,0-0.9,0.2-1.5,0.5c-0.6,0.3-1.1,0.8-1.7,1.6c-0.6,0.8-1.1,1.7-1.5,2.7
		c0.1,0,0.3,0.1,0.5,0.1c0.4-0.9,0.9-1.7,1.4-2.4c0.6-0.7,1.1-1.3,1.7-1.6c0.6-0.3,1-0.5,1.5-0.5c0.2,0,0.3,0,0.4,0.1
		C145.3,86.2,145,86,144.6,86z"/>
	<path fill="#FFFFFF" d="M129.4,97.4c-0.3,0.3-0.6,0.7-0.9,1c-0.8,0.7-1.9,1.1-3.2,1.1c-0.8,0-1.5-0.2-2-0.6c0.6,0.7,1.3,1,2.4,1
		c1.3,0,2.3-0.4,3.2-1.1c0.3-0.2,0.5-0.5,0.7-0.7C129.5,97.8,129.4,97.6,129.4,97.4z"/>
</g>
<g>
	<path fill="#FFFFFF" d="M116.4,86.2c-0.7,1-1.4,2.1-2.2,3.2c-0.8,1.1-1.5,2.1-2.1,2.9c0.3-0.1,0.5-0.1,0.8-0.2
		c0.5-0.7,1.1-1.5,1.7-2.4c0.7-1,1.4-1.9,2-2.9C116.5,86.6,116.5,86.4,116.4,86.2z"/>
	<path fill="#FFFFFF" d="M121.8,95c0-0.8,0.1-1.6,0.2-2.4c-0.2-1.4-0.5-2.7-0.8-3.9c-0.4-1.5-0.6-2.7-0.7-3.7c0-0.1,0.1-0.2,0.1-0.3
		c0-0.1,0-0.2,0-0.2c0-0.2,0-0.4-0.1-0.5c-0.1-0.4-0.3-0.8-0.6-1.1c-0.1-0.1-0.2-0.2-0.3-0.3c0.2,0.3,0.4,0.6,0.5,1
		c0,0.1,0.1,0.3,0.1,0.5c0,0.1,0,0.2,0,0.2c0,0.1-0.1,0.2-0.1,0.3c0,1,0.3,2.2,0.7,3.7s0.7,3.2,0.9,5.1c0,1-0.2,1.9-0.6,2.7
		c-0.4,0.8-0.9,1.5-1.6,2c-0.7,0.5-1.4,0.9-2.2,1.2c-0.8,0.3-1.6,0.4-2.5,0.4c-0.9,0-1.8-0.2-2.4-0.5c-0.6-0.3-1.1-0.6-1.5-1
		c0.1,0.1,0.1,0.1,0.1,0.2c0.5,0.5,1,0.9,1.7,1.2c0.7,0.3,1.5,0.5,2.4,0.5c0.8,0,1.6-0.1,2.5-0.4c0.8-0.3,1.6-0.7,2.2-1.2
		c0.7-0.5,1.2-1.2,1.6-2c0.1-0.2,0.2-0.5,0.3-0.7C121.8,95.5,121.8,95.3,121.8,95z"/>
	<path fill="#FFFFFF" d="M111.9,96.4c-0.1-0.1-0.2-0.3-0.3-0.4c-0.2-0.3-0.3-0.6-0.3-0.8c0-0.5,0.2-0.9,0.6-1.1
		c0.4-0.2,0.9-0.5,1.5-0.6c0.5-0.2,1-0.3,1.5-0.4c0.4-0.1,0.6-0.2,0.6-0.3c0-0.2,0-0.3-0.1-0.4c0,0-0.1-0.1-0.1-0.1c0,0,0,0-0.1,0
		c0,0,0,0,0,0c0,0.1-0.2,0.2-0.6,0.3c-0.4,0.1-0.9,0.2-1.5,0.4c-0.5,0.2-1,0.4-1.5,0.6s-0.6,0.6-0.6,1.1c0,0.2,0.1,0.5,0.3,0.8
		C111.3,95.9,111.6,96.2,111.9,96.4z"/>
</g>
<path fill="#FFFFFF" d="M121.8,21.1c-0.1,0-0.2-0.1-0.2-0.1c-0.1,0-0.2,0.1-0.2,0.2c-0.1,0.1-0.2,0.3-0.3,0.5
	c-0.2,0.2-0.4,0.5-0.8,0.8c-0.3,0.3-0.8,0.7-1.5,1.2c-0.5,0.4-1.3,0.8-2.2,1.3c-0.9,0.5-1.8,0.7-2.7,0.7c-1.2,0-2.2-0.5-2.9-1.4
	c-0.7-0.9-1.1-2-1.1-3.1c0-0.7,0.1-1.5,0.4-2.2c0.2,0.2,0.5,0.4,1,0.5c0.5,0.1,1,0.2,1.7,0.2c0.9,0,1.9-0.2,2.7-0.5
	c0.9-0.3,1.6-0.8,2.3-1.4c0.6-0.6,1.1-1.3,1.5-2.1c0.4-0.8,0.6-1.6,0.6-2.5c0-0.9-0.4-1.7-1.1-2.4c-0.7-0.7-1.7-1.1-3.1-1.1
	c-1.1,0-2.1,0.3-3.1,0.9c-1,0.6-1.9,1.4-2.7,2.5c-0.8,1-1.4,2.2-1.9,3.5c-0.5,1.3-0.7,2.6-0.7,4c0,0.4,0.1,0.9,0.2,1.5
	c-0.4,0.6-0.8,1.1-1.2,1.5c-0.9,0.8-1.6,1.3-2.2,1.3c-0.4,0-0.7-0.2-0.8-0.6c-0.1-0.4-0.2-0.8-0.2-1.3c0-0.8,0.1-1.6,0.4-2.3
	c0.3-0.8,0.6-1.5,1-2.2c0.4-0.7,0.8-1.4,1.2-2.1c0.4-0.7,0.7-1.3,1-2c0.1-0.4,0.2-0.7,0.2-0.9c0-0.4-0.1-0.7-0.4-1.1
	c-0.3-0.3-0.6-0.7-0.9-1c-0.3-0.3-0.6-0.6-1-0.7c-0.3-0.2-0.5-0.3-0.5-0.3c0.1,0.3,0,0.7-0.3,1.1c-0.3,0.5-0.9,1.3-1.6,2.3
	c-0.8,1.1-1.8,2.6-3,4.5c-1.2,1.9-2.7,4.4-4.4,7.5c0,0-0.1,0-0.1,0.1c0-0.7,0.2-1.7,0.6-3c0.4-1.2,0.8-2.6,1.4-4s1.2-3,1.9-4.5
	c0.7-1.5,1.3-3,1.9-4.3c0.6-1.3,1.2-2.5,1.6-3.5c0.1-0.2,0.2-0.4,0.3-0.5c1.1,0.1,2.1,0.2,3,0.2c1.9,0,3.4-0.2,4.6-0.5
	c1.2-0.3,1.9-0.6,2.2-0.8c0.2-0.2,0.5-0.4,0.6-0.7c0.2-0.2,0.3-0.5,0.5-0.8c0.1-0.3,0.2-0.8,0.2-1.2c-0.1-0.5-0.2-0.9-0.2-1.2
	c-0.1-0.3-0.1-0.6-0.2-0.8C113.1,0.1,113,0,112.8,0c-0.1,0-0.4,0.1-0.7,0.3c-0.4,0.2-0.9,0.5-1.6,0.8c-0.7,0.3-1.6,0.5-2.7,0.8
	c-1.1,0.2-2.5,0.3-4.1,0.3c-0.1,0-0.2,0-0.2,0c-0.1-0.2-0.2-0.3-0.3-0.5c-0.3-0.3-0.7-0.6-1.1-0.9c-0.4-0.2-0.8-0.4-1.2-0.6
	c-0.4-0.1-0.6-0.2-0.6-0.3c0,0.2-0.1,0.6-0.2,0.9c-0.1,0.3-0.2,0.7-0.3,1c-0.9-0.1-1.9-0.2-3-0.4c-1.2-0.2-2.5-0.3-3.9-0.5
	c-1.4-0.2-2.8-0.3-4.4-0.3c-2.1,0-4.1,0.3-6,0.9s-3.6,1.5-5,2.6C76,5.4,74.9,6.8,74,8.5c-0.8,1.7-1.3,3.7-1.3,5.9
	c0,2,0.3,3.6,0.9,4.9c0.6,1.3,1.4,2.3,2.3,3c0.9,0.7,1.8,1.3,2.7,1.5c0.9,0.3,1.7,0.4,2.4,0.4c0.9,0,1.5,0,2-0.1
	c0.5-0.1,0.8-0.2,1-0.3c0.2-0.1,0.4-0.3,0.5-0.4c0-0.1-0.1-0.2-0.2-0.2c-0.1,0-0.2-0.1-0.2-0.1c-0.1,0-0.3,0-0.6,0.1
	c-0.3,0.1-0.8,0.1-1.4,0.1c-1,0-1.9-0.2-2.9-0.5c-0.9-0.3-1.7-0.9-2.5-1.5c-0.7-0.7-1.3-1.5-1.7-2.6c-0.4-1-0.6-2.2-0.6-3.6
	c0-1.8,0.3-3.4,1-4.8c0.7-1.4,1.6-2.6,2.8-3.5c1.2-1,2.5-1.7,4-2.2c1.5-0.5,3.1-0.7,4.8-0.7c1.1,0,2.1,0.1,3.1,0.2
	c1,0.1,2.1,0.3,3.1,0.5c-0.1,0.2-0.1,0.4-0.2,0.5c0,0.1-0.1,0.3-0.1,0.4c0,0.2-0.1,0.3-0.1,0.4c-1.2,3-2.1,5.8-2.8,8.5
	c-0.7,2.7-1.3,5-1.7,6.9c-0.5,2.3-0.8,4.4-1,6.4c0.1,0.4,0.3,0.7,0.5,0.9c0.3,0.2,0.5,0.4,0.8,0.6c0.3,0.2,0.7,0.3,1.1,0.4
	c0-0.7,0.2-1.7,0.5-3.1c0.3-1.4,0.8-2.9,1.3-4.6c0.5-1.7,1.1-3.4,1.8-5.1c0.6-1.7,1.2-3.3,1.8-4.8c0.6-1.4,1-2.6,1.5-3.5
	C97.1,7.5,97.3,7,97.3,7c0.1-0.3,0.2-0.6,0.2-0.9c0-0.3,0.1-0.5,0.1-0.7c0.2,0,0.4,0.1,0.7,0.1c-0.4,1-0.8,2.1-1.3,3.4
	c-0.5,1.4-1,2.9-1.6,4.5c-0.6,1.6-1.1,3.3-1.5,4.9C93.4,20,93,21.5,92.7,23c-0.3,1.5-0.5,2.7-0.5,3.7c0,1.1,0.2,1.8,0.6,2.2
	c0.4,0.4,0.9,0.6,1.4,0.6c0.5,0,0.9-0.1,1.3-0.4c0.4-0.3,0.7-0.7,0.8-1.2c0.1-0.5,0.4-1.1,0.7-1.9c0.3-0.8,0.8-1.6,1.2-2.5
	c0.5-0.9,0.9-1.8,1.4-2.8c0.5-0.9,1-1.8,1.4-2.7c-0.2,0.7-0.4,1.3-0.5,1.9c-0.1,0.6-0.2,1.2-0.2,1.9c0,1.3,0.3,2.5,1,3.4
	c0.7,1,1.5,1.5,2.4,1.5c0.9,0,1.7-0.3,2.4-1c0.7-0.7,1.3-1.4,1.8-2.3c0.2,0.5,0.4,1,0.7,1.5c0.5,0.7,1,1.2,1.8,1.7
	c0.7,0.5,1.6,0.7,2.7,0.7c1.4,0,2.7-0.3,3.8-0.9c1.1-0.6,2-1.3,2.7-2c0.8-0.9,1.5-1.9,2.2-3C122,21.3,121.9,21.2,121.8,21.1z
	 M112.1,15.4c0.6-0.7,1.1-1.3,1.7-1.6c0.6-0.3,1-0.5,1.5-0.5c0.6,0,0.9,0.3,0.9,0.8c0,0.3-0.1,0.7-0.4,1.2c-0.3,0.5-0.6,0.9-1,1.3
	c-0.4,0.4-0.9,0.8-1.5,1c-0.6,0.3-1.2,0.4-1.8,0.4c-0.4,0-0.7,0-0.8-0.1C111,17.1,111.5,16.2,112.1,15.4z"/>
<g>
	<path fill="#FFFFFF" d="M123,22.2c-0.1,0-0.2-0.1-0.2-0.1c0,0,0,0-0.1,0c-0.6,1.1-1.3,2.1-2.1,2.9c-0.7,0.7-1.6,1.4-2.7,2
		c-1.1,0.6-2.4,0.9-3.8,0.9c-1.1,0-2-0.2-2.7-0.7c-0.3-0.2-0.6-0.4-0.9-0.7c0.4,0.4,0.8,0.8,1.3,1c0.7,0.5,1.6,0.7,2.7,0.7
		c1.4,0,2.7-0.3,3.8-0.9c1.1-0.6,2-1.3,2.7-2c0.8-0.9,1.5-1.9,2.2-3C123.1,22.4,123.1,22.3,123,22.2z"/>
	<path fill="#FFFFFF" d="M91.3,5.2c0.9,0.1,1.7,0.3,2.6,0.4c0-0.1,0.1-0.2,0.1-0.3c-1-0.2-2.1-0.4-3.1-0.5c-1-0.1-2.1-0.2-3.1-0.2
		c-1.7,0-3.3,0.2-4.8,0.7c-1.5,0.5-2.8,1.2-4,2.2c-1.2,1-2.1,2.2-2.8,3.5c-0.7,1.4-1,3-1,4.8c0,1.4,0.2,2.6,0.6,3.6
		c0.4,1,1,1.9,1.7,2.6c0,0,0.1,0.1,0.1,0.1c-0.6-0.6-1.1-1.4-1.5-2.3c-0.4-1-0.6-2.2-0.6-3.6c0-1.8,0.3-3.4,1-4.8
		c0.7-1.4,1.6-2.6,2.8-3.5c1.2-1,2.5-1.7,4-2.2C84.9,5.2,86.5,5,88.2,5C89.2,5,90.3,5,91.3,5.2z"/>
	<path fill="#FFFFFF" d="M113.2,16.5c0.6-0.7,1.1-1.3,1.7-1.6c0.6-0.3,1-0.5,1.5-0.5c0.2,0,0.3,0,0.4,0.1c-0.1-0.3-0.4-0.5-0.8-0.5
		c-0.4,0-0.9,0.2-1.5,0.5c-0.6,0.3-1.1,0.8-1.7,1.6c-0.6,0.8-1.1,1.7-1.5,2.7c0.1,0,0.3,0.1,0.5,0.1C112.3,18,112.7,17.2,113.2,16.5
		z"/>
	<path fill="#FFFFFF" d="M120.7,14c0,0.9-0.2,1.7-0.6,2.5c-0.4,0.8-0.9,1.5-1.5,2.1c-0.6,0.6-1.4,1.1-2.3,1.4
		c-0.9,0.3-1.8,0.5-2.7,0.5c-0.7,0-1.2-0.1-1.7-0.2c-0.5-0.1-0.8-0.3-1-0.5c-0.2,0.7-0.4,1.5-0.4,2.2c0,1.2,0.4,2.2,1.1,3.1
		c0.2,0.2,0.4,0.4,0.5,0.6c-0.1-0.1-0.1-0.1-0.2-0.2c-0.7-0.9-1.1-2-1.1-3.1c0-0.7,0.1-1.5,0.4-2.2c0.2,0.2,0.5,0.4,1,0.5
		c0.5,0.1,1,0.2,1.7,0.2c0.9,0,1.9-0.2,2.7-0.5c0.9-0.3,1.6-0.8,2.3-1.4c0.6-0.6,1.1-1.3,1.5-2.1c0.4-0.8,0.6-1.6,0.6-2.5
		c0-0.9-0.4-1.7-1.1-2.4c-0.1-0.1-0.1-0.1-0.2-0.2C120.4,12.5,120.7,13.2,120.7,14z"/>
	<path fill="#FFFFFF" d="M104.8,25.6c0,0,0-0.1-0.1-0.1c-0.1-0.4-0.2-0.8-0.2-1.3c0-0.8,0.1-1.6,0.4-2.3c0.3-0.8,0.6-1.5,1-2.2
		c0.4-0.7,0.8-1.4,1.2-2.1c0.4-0.7,0.7-1.3,1-2c0.1-0.4,0.2-0.7,0.2-0.9c0-0.4-0.1-0.7-0.4-1.1c-0.3-0.3-0.6-0.7-0.9-1
		c0,0-0.1-0.1-0.1-0.1c0.2,0.2,0.5,0.5,0.7,0.7c0.3,0.3,0.4,0.7,0.4,1.1c0,0.2-0.1,0.5-0.2,0.9c-0.2,0.7-0.6,1.3-1,2
		c-0.4,0.7-0.8,1.4-1.2,2.1c-0.4,0.7-0.7,1.4-1,2.2c-0.3,0.8-0.4,1.5-0.4,2.3c0,0.5,0.1,0.9,0.2,1.3
		C104.4,25.4,104.6,25.5,104.8,25.6z"/>
	<path fill="#FFFFFF" d="M114.1,1.9c0.1,0.3,0.1,0.7,0.2,1.2c0,0.5-0.1,0.9-0.2,1.2c-0.1,0.3-0.3,0.6-0.5,0.8
		c-0.2,0.2-0.4,0.5-0.6,0.7c-0.3,0.2-1,0.5-2.2,0.8c-1.2,0.3-2.7,0.5-4.6,0.5c-0.9,0-2-0.1-3-0.2c-0.1,0.2-0.2,0.4-0.3,0.5
		c-0.5,1-1,2.2-1.6,3.5c-0.6,1.3-1.3,2.8-1.9,4.3c-0.7,1.5-1.3,3-1.9,4.5s-1,2.8-1.4,4c-0.4,1.2-0.6,2.2-0.6,3c0,0,0-0.1,0.1-0.1
		c0.2-0.3,0.3-0.5,0.4-0.8c0.1-0.5,0.2-1.1,0.4-1.7c0.4-1.2,0.8-2.6,1.4-4s1.2-3,1.9-4.5c0.7-1.5,1.3-3,1.9-4.3
		c0.6-1.3,1.2-2.5,1.6-3.5c0.1-0.2,0.2-0.4,0.3-0.5c1.1,0.1,2.1,0.2,3,0.2c1.9,0,3.4-0.2,4.6-0.5c1.2-0.3,1.9-0.6,2.2-0.8
		c0.2-0.2,0.5-0.4,0.6-0.7c0.2-0.2,0.3-0.5,0.5-0.8c0.1-0.3,0.2-0.8,0.2-1.2c-0.1-0.5-0.2-0.9-0.2-1.2c-0.1-0.3-0.1-0.6-0.2-0.8
		c-0.1-0.2-0.2-0.4-0.3-0.4c0,0,0,0-0.1,0C114,1.4,114,1.6,114.1,1.9z"/>
	<path fill="#FFFFFF" d="M101.4,20.7c0.1-0.6,0.3-1.2,0.5-1.9c-0.5,0.8-0.9,1.7-1.4,2.7c-0.5,0.9-1,1.9-1.4,2.8
		c-0.5,0.9-0.9,1.7-1.2,2.5c-0.3,0.8-0.6,1.4-0.7,1.9c-0.2,0.5-0.4,0.9-0.8,1.2c-0.4,0.3-0.8,0.4-1.3,0.4c-0.4,0-0.8-0.1-1.2-0.4
		c0,0.1,0.1,0.1,0.1,0.2c0.4,0.4,0.9,0.6,1.4,0.6c0.5,0,0.9-0.1,1.3-0.4c0.4-0.3,0.7-0.7,0.8-1.2c0.1-0.5,0.4-1.1,0.7-1.9
		c0.3-0.8,0.8-1.6,1.2-2.5c0.5-0.9,0.9-1.8,1.4-2.8C101,21.5,101.2,21.1,101.4,20.7C101.4,20.8,101.4,20.7,101.4,20.7z"/>
	<path fill="#FFFFFF" d="M108.8,24.2c-0.5,0.8-1.1,1.6-1.8,2.3c-0.7,0.7-1.5,1-2.4,1c-0.6,0-1.2-0.2-1.7-0.7c0.6,0.7,1.3,1,2.1,1
		c0.9,0,1.7-0.3,2.4-1c0.7-0.6,1.2-1.3,1.7-2.1C109,24.6,108.9,24.4,108.8,24.2z"/>
	<path fill="#FFFFFF" d="M85.5,24.3c-0.1,0-0.1,0-0.2,0c-0.1,0.1-0.2,0.2-0.4,0.4c-0.2,0.1-0.5,0.2-1,0.3c-0.5,0.1-1.1,0.1-2,0.1
		c-0.7,0-1.5-0.1-2.4-0.4c-0.9-0.3-1.9-0.8-2.7-1.5c-0.1-0.1-0.2-0.2-0.3-0.3c0.2,0.3,0.5,0.5,0.7,0.7c0.9,0.7,1.8,1.3,2.7,1.5
		c0.9,0.3,1.7,0.4,2.4,0.4c0.9,0,1.5,0,2-0.1c0.5-0.1,0.8-0.2,1-0.3c0.2-0.1,0.4-0.3,0.5-0.4C85.7,24.5,85.6,24.4,85.5,24.3z"/>
	<path fill="#FFFFFF" d="M96.3,13.1c0.6-1.4,1-2.6,1.5-3.5c0,0,0-0.1,0-0.1c0.3-0.9,0.6-1.7,0.9-2.4c0-0.2,0-0.4,0-0.6
		c0.1,0,0.1,0,0.2,0c0-0.1,0.1-0.2,0.1-0.3c-0.2,0-0.4-0.1-0.7-0.1c0,0.2,0,0.4-0.1,0.7c0,0.3-0.1,0.6-0.2,0.9c0,0-0.3,0.5-0.7,1.4
		c-0.4,0.9-0.9,2.1-1.5,3.5c-0.6,1.4-1.2,3-1.8,4.8c-0.6,1.7-1.2,3.5-1.8,5.1c-0.5,1.7-1,3.2-1.3,4.6c-0.3,1.4-0.5,2.4-0.5,3.1
		c-0.4-0.1-0.8-0.2-1.1-0.4c-0.2-0.1-0.4-0.2-0.6-0.4c0.1,0.1,0.1,0.1,0.2,0.2c0.3,0.2,0.5,0.4,0.8,0.6c0.3,0.2,0.7,0.3,1.1,0.4
		c0-0.7,0.2-1.7,0.5-3.1c0.3-1.4,0.8-2.9,1.3-4.6c0.5-1.7,1.1-3.4,1.8-5.1C95.2,16.1,95.8,14.5,96.3,13.1z"/>
	<path fill="#FFFFFF" d="M104.1,3c0,0,0.1,0,0.1,0C104.3,2.9,104.2,2.9,104.1,3c0-0.2-0.1-0.3-0.2-0.3C104,2.7,104.1,2.9,104.1,3z"
		/>
</g>
</svg>
